<svg xmlns="http://www.w3.org/2000/svg" xmlns:xlink="http://www.w3.org/1999/xlink" width="146" height="144" version="1.1" viewBox="0 0 146 144"><title>ATM</title><desc>Created with Sketch.</desc><g id="Page-1" fill="none" fill-rule="evenodd" stroke="none" stroke-width="1"><g id="ATM" transform="translate(1.000000, 2.000000)"><path id="Shape" fill-rule="nonzero" d="M80.2,140.3 L0.8,140.3 L0.8,63.9 L9.8,0.3 L105.1,0.3 C105.1,0.3 105.1,8.3 105.1,20.5 L105.1,46.2" class="fill-neutral"/><path id="Shape" fill-rule="nonzero" d="M106,140.3 L0.8,140.3 L0.8,63.9 L9.8,0.3 L105.1,0.3 C105.1,0.3 105.1,8.3 105.1,20.5 L105.1,140.3" class="fill-primary-100"/><g id="Group" transform="translate(87.000000, 55.000000)"><path id="Shape" fill-rule="nonzero" d="M0.7,81.2 L0.7,4.3 C0.7,1.9 2.6,-4.54747351e-13 5,-4.54747351e-13 L52,-4.54747351e-13 C54.4,-4.54747351e-13 56.3,1.9 56.3,4.3 L56.3,81.2 C56.3,83.6 54.4,85.5 52,85.5 L5,85.5 C2.6,85.5 0.7,83.6 0.7,81.2 Z" class="fill-neutral"/><path id="Shape" fill-rule="nonzero" d="M56.3,4.3 L56.3,81.2 C56.3,83.6 54.4,85.5 52,85.5 L5,85.5 C2.6,85.5 0.7,83.6 0.7,81.2 L0.7,4.3 C0.7,1.9 2.6,0 5,0 L52,0 C54.4,0 56.3,1.9 56.3,4.3 Z" class="fill-primary-200"/><rect id="Rectangle-path" width="10.2" height="85.5" x="34.6" y="0" fill-rule="nonzero" class="fill-primary-500"/><path id="Shape" stroke-linecap="round" stroke-linejoin="round" stroke-width="3" d="M0.7,81.2 L0.7,4.3 C0.7,1.9 2.6,-4.54747351e-13 5,-4.54747351e-13 L52,-4.54747351e-13 C54.4,-4.54747351e-13 56.3,1.9 56.3,4.3 L56.3,81.2 C56.3,83.6 54.4,85.5 52,85.5 L5,85.5 C2.6,85.5 0.7,83.6 0.7,81.2 Z" class="stroke-primary"/><path id="Shape" stroke-linecap="round" stroke-linejoin="round" stroke-width="3" d="M34.3,6.9 L34.3,0" class="stroke-primary"/><path id="Shape" stroke-linecap="round" stroke-linejoin="round" stroke-width="3" d="M34.3,24 L34.3,18.3" class="stroke-primary"/><path id="Shape" stroke-linecap="round" stroke-linejoin="round" stroke-width="3" d="M34.3,85.5 L34.3,32.5" class="stroke-primary"/><path id="Shape" stroke-linecap="round" stroke-linejoin="round" stroke-width="3" d="M44.6,0 L44.6,73.9" class="stroke-primary"/><g stroke-linecap="round" stroke-linejoin="round" stroke-width="3" class="stroke-primary" transform="translate(6.000000, 59.000000)"><path id="Shape" fill-rule="nonzero" d="M1.8,9.4 C0.9,8.4 0.4,7.1 0.4,5.7 C0.4,2.6 2.9,0.1 6,0.1 C9.1,0.1 11.6,2.6 11.6,5.7 C11.6,6.4 11.5,7.1 11.2,7.7 C10.7,8.9 10.1,9.3 9.7,9.6" class="fill-neutral"/><circle id="Oval" cx="5.8" cy="14" r="5.7"/></g><path id="Shape" stroke-linecap="round" stroke-linejoin="round" stroke-width="3" d="M17.8,41.1 L17.8,48.9" class="stroke-primary"/><path id="Shape" stroke-linecap="round" stroke-linejoin="round" stroke-width="3" d="M17.8,10.5 L17.8,35.1" class="stroke-primary"/><path id="Shape" stroke-linecap="round" stroke-linejoin="round" stroke-width="3" d="M11.7,10.5 L11.7,22.3" class="stroke-primary"/></g><path id="Shape" stroke-linecap="round" stroke-linejoin="round" stroke-width="3" d="M80.2,140.3 L0.8,140.3 L0.8,63.9 L9.8,0.3 L105.1,0.3 C105.1,0.3 105.1,8.3 105.1,20.5 L105.1,46.2" class="stroke-primary"/><polyline id="Shape" stroke-linecap="round" stroke-linejoin="round" stroke-width="3" points="72.6 140.3 72.6 63.9 81.7 .3" class="stroke-primary"/><polyline id="Shape" stroke-linecap="round" stroke-linejoin="round" stroke-width="3" points="28.8 82.4 37.4 82.4 37.4 95.2 10.6 95.2 10.6 82.4 12.3 82.4" class="stroke-primary"/><path id="Shape" stroke-linecap="round" stroke-linejoin="round" stroke-width="3" d="M16.5,82.4 L20.7,82.4" class="stroke-primary"/><path id="Shape" fill-rule="nonzero" d="M21.6,9.4 L67.2,9.4 C69.2,9.4 70.6,11.1 70.3,13.1 L65.6,43.6 C65.4,45.2 64,46.3 62.4,46.3 L16.9,46 C15,46 13.5,44.3 13.8,42.3 L18.5,12.1 C18.7,10.5 20,9.4 21.6,9.4 Z" class="fill-primary-500"/><path id="Shape" stroke-linecap="round" stroke-linejoin="round" stroke-width="3" d="M21.6,9.4 L67.2,9.4 C69.2,9.4 70.6,11.1 70.3,13.1 L65.6,43.6 C65.4,45.2 64,46.3 62.4,46.3 L16.9,46 C15,46 13.5,44.3 13.8,42.3 L18.5,12.1 C18.7,10.5 20,9.4 21.6,9.4 Z" class="stroke-primary"/><path id="Shape" stroke-linecap="round" stroke-linejoin="round" stroke-width="3" d="M64,63.9 L66.7,63.9" class="stroke-primary"/><path id="Shape" stroke-linecap="round" stroke-linejoin="round" stroke-width="3" d="M0.8,63.9 L57.2,63.9" class="stroke-primary"/><path id="Shape" stroke-linecap="round" stroke-linejoin="round" stroke-width="3" d="M38.3,54.7 L63.1,54.7" class="stroke-primary"/><g id="Group" stroke-linecap="round" stroke-linejoin="round" stroke-width="3" class="stroke-neutral" transform="translate(36.000000, 16.000000)"><path id="Shape" d="M9.5,5.3 C1.8,0.5 -1,7.7 2.2,10.2 C4.5,12 10,10.8 9.8,15.2 C9.5,19.9 3.1,19.8 0.9,16.7"/><path id="Shape" d="M5.3,0.6 L5.3,3.6"/><path id="Shape" d="M5.3,19 L5.3,22"/></g></g></g></svg>