<svg xmlns="http://www.w3.org/2000/svg" xmlns:xlink="http://www.w3.org/1999/xlink" width="148" height="144" version="1.1" viewBox="0 0 148 144"><title>ATM_2</title><desc>Created with Sketch.</desc><g id="Page-1" fill="none" fill-rule="evenodd" stroke="none" stroke-width="1"><g id="ATM_2" transform="translate(1.000000, 1.000000)"><polyline id="Shape" fill-rule="nonzero" points="38.9 .5 145.3 .5 145.3 140.9 .8 140.9 .8 .5 6.5 .5" class="fill-neutral"/><path id="Shape" fill-rule="nonzero" d="M145.3,5.3 L145.3,140.9 L0.6,140.9 L0.6,12.7 C0.6,8.6 4,5.3 8.1,5.3 L145.3,5.3 Z" class="fill-primary-100"/><path id="Shape" fill="#C3DBF7" fill-rule="nonzero" d="M145.3,32.3 L145.3,48.9 L0.6,48.9 L0.6,43.2 C0.6,37.2 5.5,32.3 11.5,32.3 L145.3,32.3 Z"/><path id="Shape" fill-rule="nonzero" d="M25.9,32.6 C22.7,36.7 19.7,43 17.9,48.9 C17.1,51.5 16.6,54 16.4,56.2 C15,68.8 13.7,80.2 14.2,92.9 C14.4,96.6 14.9,100.8 13.2,104.2 C12.4,105.9 10.4,108.3 9.1,109.8 C6.3,113 3.3,117.4 0.5,120.5 L0.5,39.4 C0.5,36 3.3,33.1 6.7,33.1 L25.9,32.6 Z" class="fill-primary-300"/><path id="Shape" fill-rule="nonzero" d="M145.3,33.1 L145.3,119.4 C121.3,91.6 137.9,113.6 129,57.3 C128.6,54.8 128.3,51.9 127.8,48.9 C126.9,43.1 125.6,37 122.6,33.1 L145.3,33.1 Z" class="fill-primary-300"/><path id="Shape" fill="#80B9FF" fill-rule="nonzero" d="M6.8,33 L25.9,32.6 C22.7,36.7 19.7,43 17.9,48.9 L0.6,48.9 L0.6,39.3 C0.6,35.9 3.4,33 6.8,33 Z"/><path id="Shape" fill="#80B9FF" fill-rule="nonzero" d="M145.3,33.1 L145.3,48.9 L127.9,48.9 C127,43.1 125.7,37 122.7,33.1 L145.3,33.1 Z"/><polyline id="Shape" stroke-linecap="round" stroke-linejoin="round" stroke-width="3" points="30.4 .5 145.3 .5 145.3 140.9 .8 140.9 .8 .5 13 .5" class="stroke-primary"/><path id="Shape" stroke-linecap="round" stroke-linejoin="round" stroke-width="3" d="M19.9,0.5 L23.2,0.5" class="stroke-primary"/><path id="Shape" stroke-linecap="round" stroke-linejoin="round" stroke-width="3" d="M8.3,32.5 L144.2,32.5" class="stroke-primary"/><polyline id="Shape" fill-rule="nonzero" points="120.1 102.2 14.9 102.2 .8 120.3 145.4 120.3 131 102.2 120.1 102.2" class="fill-neutral"/><polyline id="Shape" stroke-linecap="round" stroke-linejoin="round" stroke-width="3" points="128.7 120.3 145.4 120.3 131 102.2 120.1 102.2" class="stroke-primary"/><polyline id="Shape" stroke-linecap="round" stroke-linejoin="round" stroke-width="3" points="120.1 102.2 14.9 102.2 .8 120.3 118.7 120.3" class="stroke-primary"/><path id="Shape" stroke-linecap="round" stroke-linejoin="round" stroke-width="3" d="M23.6,33.1 C21.1,36.8 12.5,66.6 14.9,102.2" class="stroke-primary"/><path id="Shape" stroke-linecap="round" stroke-linejoin="round" stroke-width="3" d="M129.7,61.7 C131,71 131.9,81.9 131.6,93.8" class="stroke-primary"/><path id="Shape" stroke-linecap="round" stroke-linejoin="round" stroke-width="3" d="M122.6,33.1 C123.7,34.8 126.2,42.1 128.3,53" class="stroke-primary"/><path id="Shape" fill-rule="nonzero" d="M31.2,91.3 L81.7,91.3 C81.7,91.3 80.8,64.9 79.1,55.7 C50.3,55.7 32.1,55.7 32.1,55.7 C31.4,67.6 30.8,77.7 31.2,91.3 Z" class="fill-primary-500"/><path id="Shape" stroke-linecap="round" stroke-linejoin="round" stroke-width="3" d="M42.2,55.7 C41.6,55.7 41.1,55.7 40.6,55.7" class="stroke-primary"/><path id="Shape" stroke-linecap="round" stroke-linejoin="round" stroke-width="3" d="M35.5,55.7 C33.3,55.7 32.1,55.7 32.1,55.7 C31.4,67.6 30.8,77.7 31.2,91.3 L81.7,91.3 C81.7,91.3 80.8,64.9 79.1,55.7 C67.8,55.7 58.1,55.7 50.5,55.7" class="stroke-primary"/><path id="Shape" fill-rule="nonzero" stroke-linecap="round" stroke-linejoin="round" stroke-width="3" d="M119.5,72.1 L89,72.1 C88.9,66.7 88.1,62.4 87.3,58.5 L116.5,58.5 C118.9,63.1 119.1,66.2 119.5,72.1 Z" class="stroke-primary fill-neutral"/><path id="Shape" stroke-linecap="round" stroke-linejoin="round" stroke-width="3" d="M92.9,64.8 L114,64.8" class="stroke-primary"/><path id="Shape" stroke-linecap="round" stroke-linejoin="round" stroke-width="3" d="M37.2,108.1 L41.1,108.1" class="stroke-primary"/><path id="Shape" stroke-linecap="round" stroke-linejoin="round" stroke-width="3" d="M47.4,108.1 L51.4,108.1" class="stroke-primary"/><path id="Shape" stroke-linecap="round" stroke-linejoin="round" stroke-width="3" d="M57.6,108.1 L61.6,108.1" class="stroke-primary"/><path id="Shape" stroke-linecap="round" stroke-linejoin="round" stroke-width="3" d="M35.3,114.7 L39.9,114.7" class="stroke-primary"/><path id="Shape" stroke-linecap="round" stroke-linejoin="round" stroke-width="3" d="M47.2,114.7 L51.8,114.7" class="stroke-primary"/><path id="Shape" stroke-linecap="round" stroke-linejoin="round" stroke-width="3" d="M59.1,114.7 L63.7,114.7" class="stroke-primary"/></g></g></svg>