<svg xmlns="http://www.w3.org/2000/svg" xmlns:xlink="http://www.w3.org/1999/xlink" width="157" height="146" version="1.1" viewBox="0 0 157 146"><title>Bank</title><desc>Created with Sketch.</desc><g id="Page-1" fill="none" fill-rule="evenodd" stroke="none" stroke-width="1"><g id="Bank" transform="translate(2.000000, 1.000000)"><g id="Group" stroke-linecap="round" stroke-linejoin="round" stroke-width="3" class="stroke-primary-300" transform="translate(0.000000, 142.000000)"><path id="Shape" d="M1.4,0.5 L0.1,0.5"/><path id="Shape" d="M21.1,0.5 L6.3,0.5"/><path id="Shape" d="M27.5,0.5 L26.3,0.5"/><path id="Shape" d="M126.2,0.5 L34.1,0.5"/><path id="Shape" d="M146.3,0.5 L131.4,0.5"/><path id="Shape" d="M153,0.5 L151.1,0.5"/></g><g id="Group" fill-rule="nonzero" class="fill-neutral" transform="translate(24.000000, 55.000000)"><rect id="Rectangle-path" width="15" height="61.6" x=".4" y=".9"/><rect id="Rectangle-path" width="15" height="61.6" x="44.4" y=".9"/><rect id="Rectangle-path" width="15" height="61.6" x="88.4" y=".9"/></g><g id="Group" fill-rule="nonzero" class="fill-primary-400" transform="translate(28.000000, 55.000000)"><rect id="Rectangle-path" width="10.5" height="62" x=".8" y=".5"/><rect id="Rectangle-path" width="10.9" height="61.601" x="44.535" y=".941" transform="translate(49.984896, 31.741895) rotate(-0.342766) translate(-49.984896, -31.741895)"/><rect id="Rectangle-path" width="10.1" height="61.6" x="89.2" y=".9"/></g><g id="Group" stroke-linecap="round" stroke-linejoin="round" stroke-width="3" class="stroke-primary" transform="translate(24.000000, 55.000000)"><rect id="Rectangle-path" width="15" height="61.6" x=".4" y=".9"/><path id="Shape" d="M44.4,22.1 L44.4,22.7"/><polyline id="Shape" points="44.4 30.8 44.4 62.5 59.3 62.5 59.3 .9 44.4 .9 44.4 12.1"/><rect id="Rectangle-path" width="15" height="61.6" x="88.4" y=".9"/></g><path id="Shape" fill-rule="nonzero" d="M134.7,130.1 L17,130.1 L17,120.8 C17,118.8 18.6,117.2 20.6,117.2 L131.1,117.2 C133.1,117.2 134.7,118.8 134.7,120.8 L134.7,130.1 Z" class="fill-neutral"/><path id="Shape" fill-rule="nonzero" d="M61.5,130.1 L63,130.1" class="fill-neutral"/><path id="Shape" fill-rule="nonzero" d="M77.9,130.1 L139.5,130.1 C141.5,130.1 143.1,131.7 143.1,133.7 L143.1,143 L8.6,143 L8.6,133.7 C8.6,131.7 10.2,130.1 12.2,130.1 L45.7,130.1" class="fill-neutral"/><path id="Shape" fill="#C4E0FF" fill-rule="nonzero" d="M134.7,130.1 L21.3,130.1 L21.3,123.2 C21.3,121.5 22.7,120.1 24.4,120.1 L131.6,120.1 C133.3,120.1 134.7,121.5 134.7,123.2 L134.7,130.1 Z"/><path id="Shape" fill="#C4E0FF" fill-rule="nonzero" d="M143.1,143 L13.4,143 L13.4,136.1 C13.4,134.4 14.8,133 16.5,133 L140,133 C141.7,133 143.1,134.4 143.1,136.1 L143.1,143 Z"/><path id="Shape" stroke-linecap="round" stroke-linejoin="round" stroke-width="3" d="M47.7,130.1 L17,130.1 L17,120.8 C17,118.8 18.6,117.2 20.6,117.2 L100.4,117.2" class="stroke-primary"/><path id="Shape" stroke-linecap="round" stroke-linejoin="round" stroke-width="3" d="M72.8,130.1 L57.6,130.1" class="stroke-primary"/><path id="Shape" stroke-linecap="round" stroke-linejoin="round" stroke-width="3" d="M112.4,117.2 L131.1,117.2 C133.1,117.2 134.7,118.8 134.7,120.8 L134.7,130.1 L93.4,130.1" class="stroke-primary"/><path id="Shape" stroke-linecap="round" stroke-linejoin="round" stroke-width="3" d="M82.7,130.1 L139.6,130.1 C141.6,130.1 143.2,131.7 143.2,133.7 L143.2,143 L8.7,143 L8.7,133.7 C8.7,131.7 10.3,130.1 12.3,130.1 L35.7,130.1" class="stroke-primary"/><path id="Shape" fill-rule="nonzero" d="M55.2,14.1 L70.8,2.6 C73.8,0.4 77.9,0.4 80.9,2.6 L143,48.6 C146.3,51 144.6,56.2 140.5,56.2 L11.2,56.2 C7.1,56.2 5.4,51 8.7,48.6 L41.2,24.5" class="fill-neutral"/><path id="Shape" fill-rule="nonzero" d="M41.1,24.6 L47.8,19.6" class="fill-neutral"/><path id="Shape" fill="#C4E0FF" fill-rule="nonzero" d="M17.5,50.2 L75.4,7.6 C78.2,5.5 82.1,5.5 85,7.6 L141.8,50.2 C144.9,52.5 143.3,57.4 139.4,57.4 L19.9,57.4 C16,57.4 14.4,52.5 17.5,50.2 Z"/><path id="Shape" stroke-linecap="round" stroke-linejoin="round" stroke-width="3" d="M56.8,56.2 L11.2,56.2 C7.1,56.2 5.4,51 8.7,48.6 L40.6,25" class="stroke-primary"/><path id="Shape" stroke-linecap="round" stroke-linejoin="round" stroke-width="3" d="M58.3,11.9 L70.8,2.6 C73.8,0.4 77.9,0.4 80.9,2.6 L143,48.6 C146.3,51 144.6,56.2 140.5,56.2 L63.5,56.2" class="stroke-primary"/><path id="Shape" stroke-linecap="round" stroke-linejoin="round" stroke-width="3" d="M48.3,19.3 L48.9,18.8" class="stroke-primary"/><path id="Shape" fill-rule="nonzero" d="M76,45.5 L76,42.5 C74.1,42.5 72.2,42 70.7,41.3 C70,41 69.7,40.2 69.9,39.4 C70.2,38.6 71.1,38.2 71.9,38.6 C73.2,39.2 74.9,39.6 76.6,39.6 C79.6,39.6 81.6,37.9 81.6,35.5 C81.6,33.2 80,31.7 76.8,30.5 C72.5,28.8 69.8,26.9 69.8,23.2 C69.8,19.7 72.3,17 76.2,16.4 L76.2,13.4 C76.2,12.7 76.8,12.1 77.5,12.1 C78.2,12.1 78.8,12.7 78.8,13.4 L78.8,16.2 C80.6,16.3 81.9,16.6 83,17 C83.7,17.3 84.1,18.1 83.8,18.9 C83.5,19.7 82.6,20.1 81.8,19.7 C80.8,19.3 79.5,19 77.9,19 C74.6,19 73.4,20.9 73.4,22.6 C73.4,24.8 75,25.9 78.6,27.4 C83,29.2 85.1,31.4 85.1,35.1 C85.1,38.4 82.8,41.6 78.4,42.3 L78.4,45.4 C78.4,46.1 77.8,46.7 77.1,46.7 C76.6,46.8 76,46.2 76,45.5 Z" class="fill-primary"/></g></g></svg>