<svg xmlns="http://www.w3.org/2000/svg" xmlns:xlink="http://www.w3.org/1999/xlink" width="150" height="149" version="1.1" viewBox="0 0 150 149"><title>Battery</title><desc>Created with Sketch.</desc><g id="Page-1" fill="none" fill-rule="evenodd" stroke="none" stroke-width="1"><g id="Battery" transform="translate(1.000000, 2.000000)"><g id="Group" stroke-linecap="round" stroke-linejoin="round" stroke-width="3" class="stroke-primary-300" transform="translate(0.000000, 144.000000)"><path id="Shape" d="M1.5,0.8 L0.5,0.8"/><path id="Shape" d="M114.4,0.8 L7.4,0.8"/><path id="Shape" d="M141.4,0.8 L119.1,0.8"/><path id="Shape" d="M147.4,0.8 L145.7,0.8"/></g><g id="Group" transform="translate(40.000000, 20.000000)"><path id="Shape" fill-rule="nonzero" d="M50.2,15.7 C53.9,15.7 57.2,15.6 60.4,15.7 C64.2,15.8 65.6,17.2 65.6,20.9 C65.6,53.8 65.6,86.7 65.6,119.6 C65.6,123.2 64,124.8 60.3,124.8 C42,124.8 23.7,124.8 5.4,124.8 C1.6,124.8 0.1,123.2 0.1,119.3 C0.1,86.5 0.1,53.7 0.1,21 C0.1,17.3 1.5,15.9 5.3,15.8 C8.6,15.7 11.8,15.8 15.3,15.8 C15.3,12.3 15.3,9.1 15.3,6 C15.4,2.2 16.9,0.5 20.7,0.5 C28.7,0.4 36.8,0.4 44.8,0.5 C48.4,0.5 49.9,2.1 50,5.8 C50.3,8.9 50.2,12.1 50.2,15.7 Z M41.3,9.3 C35.6,9.3 30.1,9.3 24.4,9.3 C24.4,10.9 24.4,12.3 24.4,13.9 C30.1,13.9 35.6,13.9 41.3,13.9 C41.3,12.3 41.3,10.9 41.3,9.3 Z" class="fill-neutral"/><path id="Shape" fill="#BAD8FF" fill-rule="nonzero" d="M65.6,25.1 C65.6,21.3 64.2,20 60.4,19.9 C57.1,19.8 53.9,19.9 50.2,19.9 C50.2,16.2 50.3,14.1 50.2,10.9 C50.1,7.2 48.6,5.6 44.9,5.6 C36.9,5.5 30.7,5.5 22.7,5.6 C18.9,5.6 18.6,7.3 18.6,11.1 C18.5,14.3 18.6,16.4 18.6,19.9 C15.1,19.9 12.5,19.8 9.2,19.9 C5.4,20 4,21.4 4,25.1 C4,52 4,76.9 4,104.7 C4,109.5 4,114.3 4,119.2 C4,123.1 5.4,124.7 9.3,124.7 C27.6,124.8 42.1,124.8 60.4,124.7 C64.1,124.7 65.7,123.1 65.7,119.5 C65.7,108.8 65.7,98.5 65.7,88.3 C65.6,66.9 65.6,46.7 65.6,25.1 Z M24.4,9.3 L41.3,9.3 L41.3,13.9 L24.4,13.9 L24.4,9.3 Z"/><path id="Shape" fill-rule="nonzero" d="M65.6,25.1 C65.6,21.3 64.2,20 60.4,19.9 C57.1,19.8 53.9,19.9 50.2,19.9 C50.2,16.2 50.3,14.1 50.2,10.9 C50.1,7.2 48.6,5.6 44.9,5.6 C36.9,5.5 30.7,5.5 22.7,5.6 C18.9,5.6 18.6,7.3 18.6,11.1 C18.5,14.3 18.6,16.4 18.6,19.9 C15.1,19.9 12.5,19.8 9.2,19.9 C5.4,20 4,21.4 4,25.1 C4,52 4,76.9 4,104.7 C4,108.6 5.4,110.2 9.3,110.2 C27.6,110.3 42.1,110.3 60.4,110.2 C64.1,110.2 65.7,108.6 65.7,105 C65.7,99.3 65.7,93.8 65.7,88.4 C65.6,66.9 65.6,46.7 65.6,25.1 Z M41.3,13.9 L24.4,13.9 L24.4,9.3 L41.3,9.3 L41.3,13.9 Z" class="fill-primary-100"/><path id="Shape" stroke-linecap="round" stroke-linejoin="round" stroke-width="3" d="M50.2,15.7 C53.9,15.7 57.2,15.6 60.4,15.7 C64.2,15.8 65.6,17.2 65.6,20.9 C65.6,53.8 65.6,86.7 65.6,119.6 C65.6,123.2 64,124.8 60.3,124.8 C42,124.8 23.7,124.8 5.4,124.8 C1.6,124.8 0.1,123.2 0.1,119.3 C0.1,86.5 0.1,53.7 0.1,21 C0.1,17.3 1.5,15.9 5.3,15.8 C8.6,15.7 11.8,15.8 15.3,15.8 C15.3,12.3 15.3,9.1 15.3,6 C15.4,2.2 16.9,0.5 20.7,0.5 C28.7,0.4 36.8,0.4 44.8,0.5 C48.4,0.5 49.9,2.1 50,5.8 C50.3,8.9 50.2,12.1 50.2,15.7 Z M41.3,9.3 C35.6,9.3 30.1,9.3 24.4,9.3 C24.4,10.9 24.4,12.3 24.4,13.9 C30.1,13.9 35.6,13.9 41.3,13.9 C41.3,12.3 41.3,10.9 41.3,9.3 Z" class="stroke-primary"/><path id="Shape" fill-rule="nonzero" d="M27.4,97.1 L52.2,63 C53,62 52.2,60.5 50.9,60.5 L38,60.7 L41.4,38.9 C41.6,37.3 39.6,36.5 38.7,37.8 L13.9,71.9 C13.2,72.9 13.9,74.4 15.2,74.4 L27.9,74.3 L24.8,96 C24.5,97.5 26.5,98.3 27.4,97.1 Z" class="fill-primary-400"/><path id="Shape" stroke-linecap="round" stroke-linejoin="round" stroke-width="3" d="M25.1,56.4 L24.8,56.9" class="stroke-primary"/><path id="Shape" stroke-linecap="round" stroke-linejoin="round" stroke-width="3" d="M37.5,64 L41.4,38.9 C41.6,37.3 39.6,36.5 38.7,37.8 L31.1,48.2" class="stroke-primary"/><path id="Shape" stroke-linecap="round" stroke-linejoin="round" stroke-width="3" d="M20.5,62.8 L13.9,71.9 C13.2,72.9 13.9,74.4 15.2,74.4 L27.9,74.3 L24.8,96 C24.6,97.6 26.6,98.4 27.5,97.1 L52.3,63 C53.1,62 52.3,60.5 51,60.5 L44.4,60.6" class="stroke-primary"/></g><rect id="Rectangle-path" width="1" height="11.7" x="72.1" y=".2" stroke-linecap="round" stroke-linejoin="round" stroke-width="3" class="stroke-primary"/><polygon id="Shape" stroke-linecap="round" stroke-linejoin="round" stroke-width="3" points="77.9 6 77.9 6 66.3 6 66.3 6" class="stroke-primary"/><g id="Group" stroke-linecap="round" stroke-linejoin="round" stroke-width="3" class="stroke-primary-300" transform="translate(97.000000, 6.000000)"><path id="Shape" d="M0.1,0.1 L0.6,0.1"/><path id="Shape" stroke-dasharray=".98 6.861" d="M7.4,0.1 L14.7,0.1 C18.5,0.1 21.7,3.2 21.7,7.1 L21.7,87.4"/><path id="Shape" d="M21.7,90.8 L21.7,91.3"/></g><circle id="Oval" cx="96.2" cy="6.1" r="3.2" fill-rule="nonzero" stroke-linecap="round" stroke-linejoin="round" stroke-width="3" class="fill-neutral"/><circle id="Oval" cx="118.6" cy="99.5" r="3.2" fill-rule="nonzero" stroke-linecap="round" stroke-linejoin="round" stroke-width="3" class="fill-neutral"/><g id="Group" stroke-linecap="round" stroke-linejoin="round" stroke-width="3" class="stroke-primary-300" transform="translate(26.000000, 54.000000)"><path id="Shape" d="M0.2,0.2 L0.2,0.7"/><path id="Shape" stroke-dasharray=".985 6.892" d="M0.2,7.6 L0.2,67.2"/><path id="Shape" d="M0.2,70.6 L0.2,71.1"/></g><circle id="Oval" cx="26.1" cy="127.4" r="3.2" fill-rule="nonzero" stroke-linecap="round" stroke-linejoin="round" stroke-width="3" class="fill-neutral"/><circle id="Oval" cx="26.1" cy="51" r="3.2" fill-rule="nonzero" stroke-linecap="round" stroke-linejoin="round" stroke-width="3" class="fill-neutral"/></g></g></svg>