<svg xmlns="http://www.w3.org/2000/svg" xmlns:xlink="http://www.w3.org/1999/xlink" width="124" height="150" version="1.1" viewBox="0 0 124 150"><title>Calculator_2</title><desc>Created with Sketch.</desc><g id="Page-1" fill="none" fill-rule="evenodd" stroke="none" stroke-width="1"><g id="Calculator_2" transform="translate(1.000000, 1.000000)"><path id="Shape" fill-rule="nonzero" d="M112.3,146.6 L9.6,146.6 C4.8,146.6 0.8,142.7 0.8,137.8 L0.8,9.5 C0.8,4.7 4.7,0.7 9.6,0.7 L112.3,0.7 C117.1,0.7 121.1,4.6 121.1,9.5 L121.1,137.8 C121.1,142.7 117.2,146.6 112.3,146.6 Z" class="fill-neutral"/><path id="Shape" fill-rule="nonzero" d="M121.1,13.5 L121.1,138.1 C121.1,142.8 117.3,146.6 112.6,146.6 L12.1,146.6 C7.4,146.6 3.6,142.8 3.6,138.1 L3.6,13.5 C3.6,8.8 7.4,5 12.1,5 L112.6,5 C117.2,5 121.1,8.8 121.1,13.5 Z" class="fill-primary-500"/><path id="Shape" fill-rule="nonzero" d="M121.1,13.5 L121.1,132.6 C121.1,137.3 117.3,141.1 112.6,141.1 L12.1,141.1 C7.4,141.1 3.6,137.3 3.6,132.6 L3.6,13.5 C3.6,8.8 7.4,5 12.1,5 L112.6,5 C117.2,5 121.1,8.8 121.1,13.5 Z" class="fill-primary-300"/><path id="Shape" stroke-linecap="round" stroke-linejoin="round" stroke-width="3.2" d="M49.1,0.9 L112.3,0.9 C117.1,0.9 121.1,4.8 121.1,9.7 L121.1,138 C121.1,142.8 117.2,146.8 112.3,146.8 L9.6,146.8 C4.8,146.8 0.8,142.9 0.8,138 L0.8,9.7 C0.8,4.9 4.7,0.9 9.6,0.9 L23,0.9" class="stroke-primary"/><path id="Shape" stroke-linecap="round" stroke-linejoin="round" stroke-width="3.2" d="M36.8,0.9 L38,0.9" class="stroke-primary"/><path id="Shape" fill-rule="nonzero" stroke-linecap="round" stroke-linejoin="round" stroke-width="3.2" d="M86.3,44.4 L13.1,44.4 C10.4,44.4 8.1,42.2 8.1,39.4 L8.1,15.5 C8.1,12.8 10.3,10.5 13.1,10.5 L108.9,10.5 C111.6,10.5 113.9,12.7 113.9,15.5 L113.9,39.4 C113.9,42.1 111.7,44.4 108.9,44.4 L96.7,44.4" class="fill-neutral"/><path id="Shape" fill-rule="nonzero" d="M106,137.6 L15.9,137.6 C11.6,137.6 8.1,134.1 8.1,129.8 L8.1,61.5 C8.1,57.2 11.6,53.7 15.9,53.7 L106,53.7 C110.3,53.7 113.8,57.2 113.8,61.5 L113.8,129.8 C113.8,134.1 110.3,137.6 106,137.6 Z" class="fill-primary-100"/><path id="Shape" stroke-linecap="round" stroke-linejoin="round" stroke-width="3.2" d="M61,54.1 L61,136.2" class="stroke-primary-300"/><path id="Shape" stroke-linecap="round" stroke-linejoin="round" stroke-width="3.2" d="M61,95.6 L113.5,95.6" class="stroke-primary-300"/><path id="Shape" stroke-linecap="round" stroke-linejoin="round" stroke-width="3.2" d="M8.4,95.6 L51.4,95.6" class="stroke-primary-300"/><path id="Shape" stroke-linecap="round" stroke-linejoin="round" stroke-width="3.2" d="M61.3,137.6 L15.9,137.6 C11.6,137.6 8.1,134.1 8.1,129.8 L8.1,61.5 C8.1,57.2 11.6,53.7 15.9,53.7 L18.7,53.7" class="stroke-primary"/><path id="Shape" stroke-linecap="round" stroke-linejoin="round" stroke-width="3.2" d="M31.3,53.6 L106,53.6 C110.3,53.6 113.8,57.1 113.8,61.4 L113.8,129.7 C113.8,134 110.3,137.5 106,137.5 L87.3,137.5" class="stroke-primary"/><g id="Group" stroke-linecap="round" stroke-linejoin="round" stroke-width="3.2" class="stroke-primary" transform="translate(26.000000, 67.000000)"><path id="Shape" d="M8.7,0.3 L8.7,16.6"/><path id="Shape" d="M16.9,8.5 L0.5,8.5"/></g><g id="Group" stroke-linecap="round" stroke-linejoin="round" stroke-width="3.2" class="stroke-primary" transform="translate(28.000000, 111.000000)"><path id="Shape" d="M12.5,0.6 L0.9,12.2"/><path id="Shape" d="M12.5,12.2 L0.9,0.6"/></g><path id="Shape" stroke-linecap="round" stroke-linejoin="round" stroke-width="3.2" d="M96.2,75.5 L79.8,75.5" class="stroke-primary"/><path id="Shape" stroke-linecap="round" stroke-linejoin="round" stroke-width="3.2" d="M96.2,113.1 L79.8,113.1" class="stroke-primary"/><path id="Shape" stroke-linecap="round" stroke-linejoin="round" stroke-width="3.2" d="M96.2,121.4 L79.8,121.4" class="stroke-primary"/><path id="Shape" stroke-linecap="round" stroke-linejoin="round" stroke-width="3.2" d="M89.3,38 L88.1,38 C86.9,38 85.9,37 85.9,35.8 L86.8,30" class="stroke-primary-300"/><path id="Shape" stroke-linecap="round" stroke-linejoin="round" stroke-width="3.2" d="M99.2,30.8 L98.4,35.8 C98.4,37 97.4,38 96.2,38 L94.8,38" class="stroke-primary-300"/><path id="Shape" stroke-linecap="round" stroke-linejoin="round" stroke-width="3.2" d="M97.4,18.3 L98.6,18.3 C99.8,18.3 100.8,19.3 100.8,20.5 L100.1,25.2" class="stroke-primary-300"/><path id="Shape" stroke-linecap="round" stroke-linejoin="round" stroke-width="3.2" d="M87.6,24.5 L88.2,20.6 C88.2,19.4 89.2,18.4 90.4,18.4 L91.7,18.4" class="stroke-primary-300"/></g></g></svg>