<svg xmlns="http://www.w3.org/2000/svg" xmlns:xlink="http://www.w3.org/1999/xlink" width="149" height="151" version="1.1" viewBox="0 0 149 151"><title>Delivery_3_1_</title><desc>Created with Sketch.</desc><g id="Page-1" fill="none" fill-rule="evenodd" stroke="none" stroke-width="1"><g id="Delivery_3_1_" transform="translate(2.000000, 1.000000)"><polygon id="Shape" fill-rule="nonzero" points="118.8 25.3 72.8 .9 26.9 25.3 26.8 25.2 26.8 76.9 72.8 101.3 118.9 76.9 118.9 25.2" class="fill-neutral"/><polygon id="Shape" fill-rule="nonzero" points="118.9 25.2 118.9 76.9 72.8 101.3 26.8 76.9 26.8 25.2 26.9 25.3 72.8 .9 117.9 24.8 118.8 25.3" class="fill-primary-300"/><polygon id="Shape" fill-rule="nonzero" points="117.9 24.8 72.8 49.6 26.8 25.3 26.8 25.2 26.9 25.3 72.8 .9" class="fill-primary-100"/><g id="Group" stroke-linecap="round" stroke-linejoin="round" stroke-width="3" class="stroke-primary" transform="translate(0.000000, 68.000000)"><g id="Shape"><path d="M22.2,33.6 L22.1,33.1 L22,32.7 C22,32.5 15.8,7.1 15.7,6.9 C14.3,0.9 6.9,-1.1 2.6,3.2 C2,3.8 1.6,4.4 1.6,4.4 C1.5,4.5 1.5,4.6 1.4,4.7 C1.4,4.7 1.4,4.7 1.4,4.7 C-0.4,7.7 0.1,7.3 3.4,32.8 C3.7,35.4 4.5,38 5.7,40.3 C6.9,42.7 8.8,46.5 12.1,53.1 C14.1,57.2 12.2,57.4 32.5,67.5 C36.8,69.7 39.6,74.1 39.6,78.9 L39.6,79.9"/><path d="M1.3,4.5 C0.9,5 1.2,4.6 0.7,5.1 C1,4.8 1.1,4.6 1.3,4.5 Z"/></g><path id="Shape" d="M31.9,49.3 L24.9,42.3 C21.6,39 21.6,33.7 24.9,30.5 C28.2,27.2 33.5,27.2 36.7,30.5 L53.2,51 C58.2,56.6 60.9,63.8 60.9,71.2 L60.9,79.7"/></g><g id="Group" stroke-linecap="round" stroke-linejoin="round" stroke-width="3" class="stroke-primary" transform="translate(84.000000, 68.000000)"><g id="Shape"><path d="M18.2,33.6 L18.3,33.1 L18.4,32.7 C18.4,32.5 24.6,7.1 24.7,6.9 C26.1,0.9 33.5,-1.1 37.8,3.2 C38.4,3.8 38.8,4.4 38.8,4.4 C38.9,4.5 38.9,4.6 39,4.7 C39,4.7 39,4.7 39,4.7 C40.8,7.7 40.3,7.3 37,32.8 C36.7,35.4 35.9,38 34.7,40.3 C33.5,42.7 31.6,46.5 28.3,53.1 C26.3,57.2 28.2,57.4 7.9,67.5 C3.6,69.7 0.8,74.1 0.8,78.9 L0.8,79.9" transform="translate(21.000000, 0.000000)"/><path d="M39,4.5 C39.4,5 39.1,4.6 39.6,5.1 C39.4,4.8 39.2,4.6 39,4.5 Z" transform="translate(21.000000, 0.000000)"/></g><path id="Shape" d="M29.4,49.3 L36.4,42.3 C39.7,39 39.7,33.7 36.4,30.5 C33.1,27.2 27.8,27.2 24.6,30.5 L8.1,51 C3.1,56.6 0.4,63.8 0.4,71.2 L0.4,79.7"/></g><polyline id="Shape" stroke-linecap="round" stroke-linejoin="round" stroke-width="3" points="36 30.1 72.8 49.6 72.8 101.3 26.8 76.9 26.8 25.2" class="stroke-primary"/><polygon id="Shape" stroke-linecap="round" stroke-linejoin="round" stroke-width="3" points="72.8 101.3 118.9 76.9 118.9 25.2 72.8 49.6" class="stroke-primary"/><polyline id="Shape" stroke-linecap="round" stroke-linejoin="round" stroke-width="3" points="118.9 25.3 72.8 .9 26.9 25.3" class="stroke-primary"/><path id="Shape" stroke-linecap="round" stroke-linejoin="round" stroke-width="3" d="M69.9,23.1 L50.5,12.8" class="stroke-primary"/><path id="Shape" stroke-linecap="round" stroke-linejoin="round" stroke-width="3" d="M76.6,26.6 L76,26.3" class="stroke-primary"/><path id="Shape" stroke-linecap="round" stroke-linejoin="round" stroke-width="3" d="M96.4,37.1 L80.6,28.7" class="stroke-primary"/></g></g></svg>