<svg xmlns="http://www.w3.org/2000/svg" xmlns:xlink="http://www.w3.org/1999/xlink" width="151" height="88" version="1.1" viewBox="0 0 151 88"><title>Delivery_2</title><desc>Created with Sketch.</desc><g id="Page-1" fill="none" fill-rule="evenodd" stroke="none" stroke-width="1"><g id="Delivery_2" transform="translate(1.000000, 1.000000)"><g id="Group" transform="translate(0.000000, 3.000000)"><path id="Shape" fill-rule="nonzero" d="M91.1,41.2 L91.1,69.1 L14,69.1 L14,49.2 C14,49 14,48.7 14,48.5 C14.4,45.4 17,43 20.2,43 L29.8,43 L29.8,4.7 C29.8,2.5 31.6,0.7 33.8,0.7 L61.5,0.7 C62.9,0.7 64.2,1.4 64.9,2.6 L91.1,41.2 Z" class="fill-primary-200"/><path id="Shape" fill-rule="nonzero" d="M91.1,41.2 L91.1,48.5 L14,48.5 C14.4,45.4 17,43 20.2,43 L29.8,43 L29.8,4.7 C29.8,2.5 31.6,0.7 33.8,0.7 L61.5,0.7 C62.9,0.7 64.2,1.4 64.9,2.6 L91.1,41.2 Z" class="fill-primary-100"/><path id="Shape" stroke-linecap="round" stroke-linejoin="round" stroke-width="3" d="M38.5,69 L14,69 L14,49.1 C14,45.7 16.8,42.9 20.2,42.9 L29.8,42.9 L29.8,4.6 C29.8,2.4 31.6,0.6 33.8,0.6" class="stroke-primary"/><path id="Shape" stroke-linecap="round" stroke-linejoin="round" stroke-width="3" d="M57.4,0.7 L61.4,0.7 C62.8,0.7 64.1,1.4 64.8,2.6 L91.1,41.1 L91.1,69 L49.7,69" class="stroke-primary"/><path id="Shape" stroke-linecap="round" stroke-linejoin="round" stroke-width="3" d="M41.8,0.7 L46.2,0.7" class="stroke-primary"/><g id="Shape" stroke-linecap="round" stroke-linejoin="round" stroke-width="3" class="stroke-primary-300"><path d="M2.1,0.4 L0.9,0.4" transform="translate(0.000000, 82.000000)"/><path d="M54.3,0.4 L9.5,0.4" transform="translate(0.000000, 82.000000)"/><path d="M140.4,0.4 L60.1,0.4" transform="translate(0.000000, 82.000000)"/><path d="M147.9,0.4 L145.8,0.4" transform="translate(0.000000, 82.000000)"/></g><circle id="Oval" cx="76.6" cy="69.8" r="12" fill-rule="nonzero" stroke-linecap="round" stroke-linejoin="round" stroke-width="3" class="stroke-primary fill-primary-400"/><circle id="Oval" cx="28.7" cy="69.8" r="12" fill-rule="nonzero" stroke-linecap="round" stroke-linejoin="round" stroke-width="3" class="stroke-primary fill-primary-400"/><circle id="Oval" cx="28.7" cy="69.8" r="5.7" fill-rule="nonzero" stroke-linecap="round" stroke-linejoin="round" stroke-width="3" class="stroke-primary fill-primary-100"/><circle id="Oval" cx="76.6" cy="69.8" r="5.7" fill-rule="nonzero" stroke-linecap="round" stroke-linejoin="round" stroke-width="3" class="stroke-primary fill-primary-100"/></g><polyline id="Shape" fill-rule="nonzero" stroke-linecap="round" stroke-linejoin="round" stroke-width="3" points="75.6 36.8 81 44.6 38.1 45.3 38.1 11.8 58.8 11.8 70.7 29.4" class="stroke-primary fill-neutral"/><polyline id="Shape" stroke-linecap="round" stroke-linejoin="round" stroke-width="3" points="140.3 71.8 97.9 71.8 97.9 .7" class="stroke-primary"/><rect id="Rectangle-path" width="31" height="23.1" x="105.4" y="40.2" fill-rule="nonzero" stroke-linecap="round" stroke-linejoin="round" stroke-width="3" class="stroke-primary fill-primary-100"/><rect id="Rectangle-path" width="31" height="23.1" x="105.4" y="9" fill-rule="nonzero" stroke-linecap="round" stroke-linejoin="round" stroke-width="3" class="stroke-primary fill-primary-100"/><rect id="Rectangle-path" width="5.3" height="7.9" x="117.9" y="9" fill-rule="nonzero" stroke-linecap="round" stroke-linejoin="round" stroke-width="3" class="stroke-primary fill-neutral"/><rect id="Rectangle-path" width="5.3" height="7.9" x="118" y="40.2" fill-rule="nonzero" stroke-linecap="round" stroke-linejoin="round" stroke-width="3" class="stroke-primary fill-neutral"/></g></g></svg>