<svg xmlns="http://www.w3.org/2000/svg" xmlns:xlink="http://www.w3.org/1999/xlink" width="149" height="149" version="1.1" viewBox="0 0 149 149"><title>Enterprise_2</title><desc>Created with Sketch.</desc><g id="Page-1" fill="none" fill-rule="evenodd" stroke="none" stroke-width="1"><g id="Enterprise_2" transform="translate(1.000000, 1.000000)"><g id="Group" stroke-linecap="round" stroke-linejoin="round" stroke-width="2.409" class="stroke-primary-300" transform="translate(0.000000, 145.000000)"><path id="Shape" d="M1.3,0.9 L0.4,0.9"/><path id="Shape" d="M27.8,0.9 L5,0.9"/><path id="Shape" d="M32.7,0.9 L31.8,0.9"/><path id="Shape" d="M107.9,0.9 L37.7,0.9"/><path id="Shape" d="M141.7,0.9 L111.9,0.9"/><path id="Shape" d="M146.8,0.9 L145.4,0.9"/></g><rect id="Rectangle-path" width="66.4" height="121.5" x="28.5" y="24" fill-rule="nonzero" class="fill-neutral"/><rect id="Rectangle-path" width="61.9" height="116.4" x="32.9" y="29.1" fill-rule="nonzero" class="fill-primary-300"/><path id="Shape" stroke-linecap="round" stroke-linejoin="round" stroke-width="2.409" d="M28.5,48.7 L28.5,48.2" class="stroke-primary"/><polyline id="Shape" stroke-linecap="round" stroke-linejoin="round" stroke-width="2.409" points="28.5 41.8 28.5 24 94.8 24 94.8 145.5 28.5 145.5 28.5 67.3" class="stroke-primary"/><rect id="Rectangle-path" width="26.7" height="99.1" x="94.8" y="46.4" fill-rule="nonzero" class="fill-neutral"/><rect id="Rectangle-path" width="26.7" height="94.8" x="94.8" y="50.8" fill-rule="nonzero" class="fill-primary-500"/><rect id="Rectangle-path" width="26.7" height="99.1" x="94.8" y="46.4" stroke-linecap="round" stroke-linejoin="round" stroke-width="2.409" class="stroke-primary"/><rect id="Rectangle-path" width="16.4" height="27.6" x="53.5" y="118" fill-rule="nonzero" class="fill-neutral"/><path id="Shape" stroke-linecap="round" stroke-linejoin="round" stroke-width="2.409" d="M69.8,124.9 L69.8,124.4" class="stroke-primary"/><polyline id="Shape" stroke-linecap="round" stroke-linejoin="round" stroke-width="2.409" points="69.8 118.8 69.8 118 53.5 118 53.5 145.5 69.8 145.5 69.8 135" class="stroke-primary"/><polyline id="Shape" stroke-linecap="round" stroke-linejoin="round" stroke-width="2.409" points="38 41.4 38 35.2 49.4 35.2 49.4 46.7 38 46.7 38 45.9" class="stroke-primary"/><rect id="Rectangle-path" width="11.5" height="11.5" x="56.2" y="35.2" stroke-linecap="round" stroke-linejoin="round" stroke-width="2.409" class="stroke-primary"/><rect id="Rectangle-path" width="11.5" height="11.5" x="74.3" y="35.2" stroke-linecap="round" stroke-linejoin="round" stroke-width="2.409" class="stroke-primary"/><rect id="Rectangle-path" width="11.5" height="11.5" x="38" y="54.2" stroke-linecap="round" stroke-linejoin="round" stroke-width="2.409" class="stroke-primary"/><polyline id="Shape" stroke-linecap="round" stroke-linejoin="round" stroke-width="2.409" points="67.6 61.2 67.6 65.6 56.2 65.6 56.2 54.2 67.6 54.2 67.6 56" class="stroke-primary"/><rect id="Rectangle-path" width="11.5" height="11.5" x="74.3" y="54.2" stroke-linecap="round" stroke-linejoin="round" stroke-width="2.409" class="stroke-primary"/><rect id="Rectangle-path" width="11.5" height="11.5" x="38" y="73.1" stroke-linecap="round" stroke-linejoin="round" stroke-width="2.409" class="stroke-primary"/><rect id="Rectangle-path" width="11.5" height="11.5" x="56.2" y="73.1" stroke-linecap="round" stroke-linejoin="round" stroke-width="2.409" class="stroke-primary"/><rect id="Rectangle-path" width="11.5" height="11.5" x="74.3" y="73.1" stroke-linecap="round" stroke-linejoin="round" stroke-width="2.409" class="stroke-primary"/><rect id="Rectangle-path" width="11.5" height="11.5" x="38" y="92.1" stroke-linecap="round" stroke-linejoin="round" stroke-width="2.409" class="stroke-primary"/><rect id="Rectangle-path" width="11.5" height="11.5" x="56.2" y="92.1" stroke-linecap="round" stroke-linejoin="round" stroke-width="2.409" class="stroke-primary"/><path id="Shape" stroke-linecap="round" stroke-linejoin="round" stroke-width="2.409" d="M79.6,92.1 L79.7,92.1" class="stroke-primary"/><polyline id="Shape" stroke-linecap="round" stroke-linejoin="round" stroke-width="2.409" points="84.1 92.1 85.8 92.1 85.8 103.6 74.3 103.6 74.3 92.1 76.3 92.1" class="stroke-primary"/><polyline id="Shape" stroke-linecap="round" stroke-linejoin="round" stroke-width="2.409" points="112.3 54.2 113.4 54.2 113.4 65.6 101.9 65.6 101.9 54.2 107 54.2" class="stroke-primary"/><rect id="Rectangle-path" width="11.5" height="11.5" x="101.9" y="73.1" stroke-linecap="round" stroke-linejoin="round" stroke-width="2.409" class="stroke-primary"/><rect id="Rectangle-path" width="11.5" height="11.5" x="101.9" y="92.1" stroke-linecap="round" stroke-linejoin="round" stroke-width="2.409" class="stroke-primary"/><rect id="Rectangle-path" width="11.5" height="11.5" x="101.9" y="111.1" stroke-linecap="round" stroke-linejoin="round" stroke-width="2.409" class="stroke-primary"/><path id="Shape" stroke-linecap="round" stroke-linejoin="round" stroke-width="2.409" d="M81.8,0.2 L81.8,22.5" class="stroke-primary"/><path id="Shape" stroke-linecap="round" stroke-linejoin="round" stroke-width="2.409" d="M89.5,12.7 L89.5,23" class="stroke-primary"/><g id="Group" stroke-linecap="round" stroke-linejoin="round" stroke-width="2.409" class="stroke-primary-300" transform="translate(13.000000, 6.000000)"><path id="Shape" d="M0.8,46.5 L0.8,46.1"/><path id="Shape" stroke-dasharray=".829 5.804" d="M0.8,40.3 L0.8,6.9 C0.8,3.5 3.6,0.7 7,0.7 L53.8,0.7"/><path id="Shape" d="M56.8,0.6 L57.2,0.6"/></g><circle id="Oval" cx="13.8" cy="53.3" r="2.9" fill-rule="nonzero" stroke-linecap="round" stroke-linejoin="round" stroke-width="2.409" class="fill-neutral"/><path id="Shape" stroke-linecap="round" stroke-linejoin="round" stroke-width="2.409" d="M143.8,20.8 C143.8,21.7 143.6,22.5 143.1,23.2 C142.3,24.2 141.1,24.9 139.8,24.9 L121.3,24.9 C120.7,24.9 120.2,24.8 119.7,24.6 C118.5,23.8 117.8,22.4 117.8,20.8 C117.8,20.6 117.8,20.4 117.8,20.2 C118,18.3 119.3,16.8 121,16.4 C121,16.3 121,16.2 121,16.1 C121,12.7 123.6,9.9 126.8,9.9 C128.9,9.9 130.7,11.1 131.7,12.8 C132.5,12.2 133.5,11.9 134.5,11.9 C137,11.9 139.1,13.7 139.6,16.2 C141.3,16.2 142.7,17.3 143.4,18.8 C143.6,19.5 143.8,20.1 143.8,20.8 Z" class="stroke-primary-300"/><path id="Shape" stroke-linecap="round" stroke-linejoin="round" stroke-width="2.409" d="M114.4,16.6 L109.4,16.6 C109,16.6 108.6,16.5 108.3,16.4 C107.5,15.8 106.9,14.8 106.9,13.7 C106.9,13.6 106.9,13.4 106.9,13.3 C107.1,11.9 108,10.9 109.2,10.5 C109.2,10.4 109.2,10.4 109.2,10.3 C109.2,7.8 111.1,5.8 113.4,5.8 C114.9,5.8 116.2,6.6 116.9,7.9 C117.5,7.5 118.2,7.3 118.9,7.3 C119.7,7.3 120.4,7.6 121,8" class="stroke-primary-300"/></g></g></svg>