<svg xmlns="http://www.w3.org/2000/svg" xmlns:xlink="http://www.w3.org/1999/xlink" width="150" height="131" version="1.1" viewBox="0 0 150 131"><title>Gift</title><desc>Created with Sketch.</desc><g id="Page-1" fill="none" fill-rule="evenodd" stroke="none" stroke-width="1"><g id="Gift" transform="translate(2.000000, 2.000000)"><g id="Group" stroke-linecap="round" stroke-linejoin="round" stroke-width="3" class="stroke-primary-300" transform="translate(9.000000, 126.000000)"><path id="Shape" d="M1.5,0.2 L0.7,0.2"/><path id="Shape" d="M23.7,0.2 L4.6,0.2"/><path id="Shape" d="M27.8,0.2 L27.1,0.2"/><path id="Shape" d="M91,0.2 L32,0.2"/><path id="Shape" d="M118.6,0.2 L94.4,0.2"/><path id="Shape" d="M122.9,0.2 L121.7,0.2"/><path id="Shape" d="M126.5,0.2 L126.3,0.2"/></g><path id="Shape" fill-rule="nonzero" d="M120.8,53.7 L120.8,63.6 C120.8,65.6 119.2,67.2 117.2,67.2 L33.5,67.2 C31.5,67.2 29.9,65.6 29.9,63.6 L29.9,53.7 C29.9,51.7 31.5,50.1 33.5,50.1 L117.2,50.1 C119.1,50.1 120.8,51.7 120.8,53.7 Z" class="fill-neutral"/><path id="Shape" fill-rule="nonzero" d="M120.8,55.1 L120.8,65.2 C120.8,66.3 119.8,67.2 118.5,67.2 L36,67.2 C34.7,67.2 33.7,66.3 33.7,65.2 L33.7,55.1 C33.7,54 34.7,53.1 36,53.1 L118.5,53.1 C119.7,53.1 120.8,54 120.8,55.1 Z" class="fill-primary-300"/><path id="Shape" fill-rule="nonzero" d="M115.2,67.1 L115.2,121 C115.2,124.1 112.7,126.6 109.6,126.6 L41,126.6 C37.9,126.6 35.4,124.1 35.4,121 L35.4,67.1 L115.2,67.1 Z" class="fill-neutral"/><path id="Shape" fill-rule="nonzero" d="M115.2,67.1 L115.2,122.8 C115.2,124.9 113.6,126.6 111.7,126.6 L43.9,126.6 C41.9,126.6 40.4,124.9 40.4,122.8 L40.4,67.1 L115.2,67.1 Z" class="fill-primary-300"/><rect id="Rectangle-path" width="13.5" height="76.3" x="68.4" y="50" fill-rule="nonzero" class="fill-neutral"/><rect id="Rectangle-path" width="74.9" height="4.7" x="40.4" y="67.1" fill="#5EA6FF" fill-rule="nonzero"/><path id="Shape" stroke-linecap="round" stroke-linejoin="round" stroke-width="3" d="M111.9,67.1 L115.2,67.1 L115.2,121 C115.2,124.1 112.7,126.6 109.6,126.6 L41,126.6 C37.9,126.6 35.4,124.1 35.4,121 L35.4,82.6" class="stroke-primary"/><polyline id="Shape" stroke-linecap="round" stroke-linejoin="round" stroke-width="3" points="35.4 74.3 35.4 67.1 102.1 67.1" class="stroke-primary"/><path id="Shape" stroke-linecap="round" stroke-linejoin="round" stroke-width="3" d="M102.3,67.1 L33.5,67.1 C31.5,67.1 29.9,65.5 29.9,63.5 L29.9,53.6 C29.9,51.6 31.5,50 33.5,50" class="stroke-primary"/><path id="Shape" stroke-linecap="round" stroke-linejoin="round" stroke-width="3" d="M45.6,50.1 L117.1,50.1 C119.1,50.1 120.7,51.7 120.7,53.7 L120.7,63.6 C120.7,65.6 119.1,67.2 117.1,67.2 L110.6,67.2" class="stroke-primary"/><path id="Shape" stroke-linecap="round" stroke-linejoin="round" stroke-width="3" d="M38.5,50.1 L39.3,50.1" class="stroke-primary"/><path id="Shape" stroke-linecap="round" stroke-linejoin="round" stroke-width="3" d="M68.6,60.2 L68.6,50.1" class="stroke-primary"/><path id="Shape" stroke-linecap="round" stroke-linejoin="round" stroke-width="3" d="M68.6,126.6 L68.6,67.1" class="stroke-primary"/><path id="Shape" stroke-linecap="round" stroke-linejoin="round" stroke-width="3" d="M82,98.9 L82,126.6" class="stroke-primary"/><path id="Shape" stroke-linecap="round" stroke-linejoin="round" stroke-width="3" d="M82,87.1 L82,88" class="stroke-primary"/><path id="Shape" stroke-linecap="round" stroke-linejoin="round" stroke-width="3" d="M82,54 L82,81.7" class="stroke-primary"/><path id="Shape" stroke-linecap="round" stroke-linejoin="round" stroke-width="3" d="M63.1,25.4 C62,25.4 60.8,25.6 59.8,25.8" class="stroke-primary"/><path id="Shape" stroke-linecap="round" stroke-linejoin="round" stroke-width="3" d="M55,28.5 C52.4,30.8 50.8,34.1 50.8,37.7 C50.8,44.5 56.3,50 63.1,50 L75.4,50 L75.4,37.7 C75.4,33.2 73,29.3 69.5,27.2" class="stroke-primary"/><path id="Shape" stroke-linecap="round" stroke-linejoin="round" stroke-width="3" d="M84.7,50.1 L75.5,50.1 L75.5,39.6 C75.5,33.8 80.2,29.1 86,29.1 C91.8,29.1 96.5,33.8 96.5,39.6 C96.5,41.8 95.8,43.9 94.6,45.6" class="stroke-primary"/><path id="Shape" stroke-linecap="round" stroke-linejoin="round" stroke-width="3" d="M57.3,33 C57.1,33.2 56.9,33.5 56.8,33.7" class="stroke-primary"/><path id="Shape" stroke-linecap="round" stroke-linejoin="round" stroke-width="3" d="M71.1,45.6 L71.1,37.9 C71.1,34.6 69.1,31.8 66.2,30.7" class="stroke-primary"/><path id="Shape" stroke-linecap="round" stroke-linejoin="round" stroke-width="3" d="M56.8,33.7 C56,34.9 55.6,36.4 55.6,37.9 C55.6,42.2 59.1,45.7 63.4,45.7 L66.2,45.7" class="stroke-primary"/><path id="Shape" stroke-linecap="round" stroke-linejoin="round" stroke-width="3" d="M79.5,46 L79.5,39.5 C79.5,38.2 79.9,37 80.5,36" class="stroke-primary"/><path id="Shape" stroke-linecap="round" stroke-linejoin="round" stroke-width="3" d="M85.2,33.1 C85.5,33.1 85.7,33 86,33 C89.6,33 92.5,35.9 92.5,39.5 C92.5,43.1 89.6,46 86,46 L84,46" class="stroke-primary"/><g id="Group" stroke-linecap="round" stroke-linejoin="round" stroke-width="3" class="stroke-primary"><path id="Shape" d="M73.9,0.4 L73.9,10.6"/><g id="Shape"><path d="M133.8,0.5 L143.6,3.2" transform="translate(2.000000, 94.000000)"/><path d="M6.7,1.6 L10.2,0.9" transform="translate(2.000000, 94.000000)"/><path d="M0.3,2.7 L1.4,2.5" transform="translate(2.000000, 94.000000)"/></g><g id="Shape"><path d="M0.1,0.1 L14.1,3.9" transform="translate(0.000000, 54.000000)"/><path d="M133.6,3.5 L143.6,1.7" transform="translate(0.000000, 54.000000)"/></g><g id="Shape"><path d="M84.8,6.5 L79.5,12.6" transform="translate(32.000000, 9.000000)"/><path d="M90.5,0.1 L87.8,3.1" transform="translate(32.000000, 9.000000)"/><path d="M0,8 L3.5,12.9" transform="translate(32.000000, 9.000000)"/></g></g></g></g></svg>