<svg xmlns="http://www.w3.org/2000/svg" xmlns:xlink="http://www.w3.org/1999/xlink" width="116" height="149" version="1.1" viewBox="0 0 116 149"><title>Image_File</title><desc>Created with Sketch.</desc><g id="Page-1" fill="none" fill-rule="evenodd" stroke="none" stroke-width="1"><g id="Image_File" transform="translate(2.000000, 2.000000)"><path id="Shape" fill-rule="nonzero" d="M111.1,35.9 L112.3,138.3 C112.3,141.8 109.5,144.6 106,144.6 L6.4,144.6 C2.9,144.6 0.1,141.8 0.1,138.3 L0.1,6.6 C0.1,3.1 2.9,0.3 6.4,0.3 L78.6,0.3 L111.1,35.9 Z" class="fill-neutral"/><path id="Shape" fill-rule="nonzero" d="M111.2,36.5 L112.3,138.6 C112.3,141.9 109.6,144.5 106.4,144.5 L11.9,144.5 C8.6,144.5 6,141.8 6,138.6 L6,11.6 C6,8.3 8.7,5.7 11.9,5.7 L83.9,5.7 L111.2,36.5 Z" class="fill-primary-100"/><rect id="Rectangle-path" width="10.4" height="10.3" x="27.679" y="85.456" fill-rule="nonzero" class="fill-neutral" transform="translate(32.878505, 90.605925) rotate(-45.000000) translate(-32.878505, -90.605925)"/><rect id="Rectangle-path" width="13.3" height="12.5" x="65.982" y="66.953" fill-rule="nonzero" class="fill-neutral" transform="translate(72.631690, 73.202560) rotate(-45.000000) translate(-72.631690, -73.202560)"/><path id="Shape" fill-rule="nonzero" d="M78.7,0.5 L78.7,28.7 C78.7,32.6 82.2,35.9 86,35.9 L111.1,35.9" class="fill-neutral"/><path id="Shape" fill-rule="nonzero" d="M82.2,3.3 L82.2,29 C82.2,32.5 85.3,35.6 88.9,35.6 L111.7,35.6" class="fill-primary-300"/><path id="Shape" fill-rule="nonzero" d="M82.2,8.5 L82.2,34.2 C82.2,37.7 85.3,40.8 88.9,40.8 L111.7,40.8 L111.7,35.6" class="fill-primary-300"/><path id="Shape" stroke-linecap="round" stroke-linejoin="round" stroke-width="3" d="M78.7,22.5 L78.7,28.7 C78.7,32.6 82.2,35.9 86,35.9 L111.1,35.9" class="stroke-primary"/><path id="Shape" stroke-linecap="round" stroke-linejoin="round" stroke-width="3" d="M78.7,0.5 L78.7,15.7" class="stroke-primary"/><path id="Shape" stroke-linecap="round" stroke-linejoin="round" stroke-width="3" d="M0.2,34.1 L0.2,32.6" class="stroke-primary"/><path id="Shape" stroke-linecap="round" stroke-linejoin="round" stroke-width="3" d="M0.2,25.4 L0.2,6.7 C0.2,3.2 3,0.4 6.5,0.4 L78.7,0.4 L111.2,35.9 L112.4,138.3 C112.4,141.8 109.6,144.6 106.1,144.6 L6.5,144.6 C3,144.6 0.2,141.8 0.2,138.3 L0.2,49.6" class="stroke-primary"/><polyline id="Shape" stroke-linecap="round" stroke-linejoin="round" stroke-width="3" points="27.3 92.6 32.1 97.4 38.8 90.6" class="stroke-primary-300"/><polyline id="Shape" stroke-linecap="round" stroke-linejoin="round" stroke-width="3" points="67.6 77.6 72.9 82.9 81.1 74.7" class="stroke-primary-300"/><polyline id="Shape" stroke-linecap="round" stroke-linejoin="round" stroke-width="3" points="30.2 84.2 32.1 82.3 54.7 104.9" class="stroke-primary"/><path id="Shape" stroke-linecap="round" stroke-linejoin="round" stroke-width="3" d="M14.7,99.6 L24.8,89.6" class="stroke-primary"/><polyline id="Shape" stroke-linecap="round" stroke-linejoin="round" stroke-width="3" points="71.2 65.8 72.9 64.1 104.6 95.9" class="stroke-primary"/><path id="Shape" stroke-linecap="round" stroke-linejoin="round" stroke-width="3" d="M68.2,68.8 L68.3,68.7" class="stroke-primary"/><path id="Shape" stroke-linecap="round" stroke-linejoin="round" stroke-width="3" d="M47.7,89.3 L63.3,73.7" class="stroke-primary"/><g id="Group" transform="translate(24.000000, 45.000000)"><circle id="Oval" cx="10" cy="10.1" r="9.2" fill-rule="nonzero" class="fill-neutral"/><circle id="Oval" cx="11.6" cy="11.6" r="7.7" fill-rule="nonzero" class="fill-primary-300"/><path id="Shape" stroke-linecap="round" stroke-linejoin="round" stroke-width="3" d="M3.7,3.5 C3.8,3.4 4,3.3 4.1,3.1" class="stroke-primary"/><path id="Shape" stroke-linecap="round" stroke-linejoin="round" stroke-width="3" d="M10,0.9 C15.1,0.9 19.2,5 19.2,10.1 C19.2,15.2 15.1,19.3 10,19.3 C4.9,19.3 0.8,15.2 0.8,10.1" class="stroke-primary"/></g></g></g></svg>