<svg xmlns="http://www.w3.org/2000/svg" xmlns:xlink="http://www.w3.org/1999/xlink" width="151" height="148" version="1.1" viewBox="0 0 151 148"><title>Map_2</title><desc>Created with Sketch.</desc><g id="Page-1" fill="none" fill-rule="evenodd" stroke="none" stroke-width="1"><g id="Map_2" transform="translate(1.000000, 1.000000)"><path id="Shape" fill-rule="nonzero" d="M143.6,142.7 L110.7,130.1 L74.5,144.7 L35.3,130.1 L5.3,141.6 C2.6,142.6 -0.2,140.1 0.6,137.3 L19.3,72.6 C19.9,70.5 21.4,68.7 23.4,67.8 L53.4,53.7 L74.5,68.8 L95.1,55.7 L128.3,70.3 C130.5,71.3 132.1,73.2 132.6,75.5 L148.2,138.6 C149,141.4 146.3,143.8 143.6,142.7 Z" class="fill-neutral"/><path id="Shape" fill-rule="nonzero" d="M143.4,143.2 L110.5,130.6 L94.9,56.3 L128.1,70.9 C130.3,71.9 131.9,73.8 132.4,76.1 L148,139.2 C148.8,141.8 146,144.2 143.4,143.2 Z" class="fill-neutral"/><path id="Shape" stroke-linecap="round" stroke-linejoin="round" stroke-width="3" d="M35.4,130.1 L5.4,141.6 C2.7,142.6 -0.1,140.1 0.7,137.3 L19.4,72.6 C20,70.5 21.5,68.7 23.5,67.8 L53.5,53.7 L74.6,68.8 L95.2,55.7 L98.2,57" class="stroke-primary"/><path id="Shape" stroke-linecap="round" stroke-linejoin="round" stroke-width="3" d="M110.1,62.3 L128.4,70.3 C130.6,71.3 132.2,73.2 132.7,75.5 L148.3,138.6 C149,141.4 146.3,143.8 143.6,142.7 L110.7,130.1 L74.5,144.7 L42.2,132.7" class="stroke-primary"/><path id="Shape" fill-rule="nonzero" d="M53.5,53.8 L35.4,130.1 L5.4,141.6 C2.7,142.6 -0.1,140.1 0.7,137.3 L19.4,72.6 C20,70.5 21.5,68.7 23.5,67.8 L53.5,53.8 Z" class="fill-primary-100"/><path id="Shape" stroke-linecap="round" stroke-linejoin="round" stroke-width="3" d="M53.5,53.8 L35.4,130.1 L5.4,141.6 C2.7,142.6 -0.1,140.1 0.7,137.3 L19.4,72.6 C20,70.5 21.5,68.7 23.5,67.8 L53.5,53.8 Z" class="stroke-primary"/><polygon id="Shape" fill-rule="nonzero" points="110.8 130.1 74.6 144.7 74.6 68.8 95.2 55.8" class="fill-primary-100"/><path id="Shape" stroke-dasharray="1 7" stroke-linecap="round" stroke-linejoin="round" stroke-width="3" d="M18.6,89 C28.6,104.3 40.9,119.2 58.3,105.8 C79.2,89.8 74.3,81.2 89,92.3 C104.6,104 102.3,115.6 131.4,86.9" class="stroke-primary-300"/><polyline id="Shape" stroke-linecap="round" stroke-linejoin="round" stroke-width="3" points="74.6 89.8 74.6 68.8 95.2 55.8 110.8 130.1 74.6 144.7 74.6 107.9" class="stroke-primary"/><path id="Shape" fill-rule="nonzero" d="M74.6,0.5 C92.9,0.5 107.7,15.3 107.7,33.6 C107.7,48.2 86.7,77.1 78.1,88.3 C76.3,90.7 72.7,90.7 70.9,88.3 C62.3,77.1 41.3,48.2 41.3,33.6 C41.5,15.4 56.3,0.5 74.6,0.5 Z" class="fill-neutral"/><path id="Shape" fill-rule="nonzero" d="M76.1,6.6 C92.7,6.6 106.2,20.4 106.2,37.5 C106.2,51.1 87.1,78 79.3,88.5 C77.7,90.7 74.4,90.7 72.8,88.5 C65,78 45.9,51.1 45.9,37.5 C46,20.4 59.5,6.6 76.1,6.6 Z" class="fill-primary-100"/><circle id="Oval" cx="75.1" cy="33.4" r="12.9" fill-rule="nonzero" class="fill-neutral"/><path id="Shape" stroke-linecap="round" stroke-linejoin="round" stroke-width="3" d="M64.9,2 C68,1.1 71.2,0.6 74.6,0.6 C92.9,0.6 107.7,15.4 107.7,33.7 C107.7,48.3 86.7,77.2 78.1,88.4 C76.3,90.8 72.7,90.8 70.9,88.4 C62.3,77.2 41.3,48.3 41.3,33.7 C41.3,29.2 42.2,25 43.8,21.1" class="stroke-primary"/><path id="Shape" stroke-linecap="round" stroke-linejoin="round" stroke-width="3" d="M48.4,13.4 C49.5,12 50.7,10.6 52,9.4" class="stroke-primary"/><path id="Shape" stroke-linecap="round" stroke-linejoin="round" stroke-width="3" d="M74.6,46.7 C67.4,46.7 61.5,40.9 61.5,33.6 C61.5,30.6 62.5,27.9 64.1,25.7" class="stroke-primary"/><path id="Shape" stroke-linecap="round" stroke-linejoin="round" stroke-width="3" d="M72.7,20.8 C73.3,20.7 74,20.7 74.6,20.7 C81.8,20.7 87.7,26.5 87.7,33.8 C87.7,37.4 86.2,40.7 83.9,43" class="stroke-primary"/></g></g></svg>