<svg xmlns="http://www.w3.org/2000/svg" xmlns:xlink="http://www.w3.org/1999/xlink" width="101" height="153" version="1.1" viewBox="0 0 101 153"><title>Microphone</title><desc>Created with Sketch.</desc><g id="Page-1" fill="none" fill-rule="evenodd" stroke="none" stroke-width="1"><g id="Microphone" transform="translate(1.000000, 1.000000)"><path id="Shape" fill-rule="nonzero" d="M29.7,6.6 C35.3,2.8 42,0.5 49.3,0.5 C68.4,0.5 83.8,16 83.8,35 L83.8,77.9 C83.8,97 68.3,112.4 49.3,112.4 C30.2,112.4 14.8,96.9 14.8,77.9 L14.8,35 C14.8,23.3 20.7,12.8 29.7,6.6" class="fill-neutral"/><path id="Shape" fill-rule="nonzero" d="M51.1,112.5 L50.7,112.5 C32.6,112.5 18,97.8 18,79.8 L18,39.3 C18,21.2 32.7,6.6 50.7,6.6 L51.1,6.6 C69.2,6.6 83.8,21.3 83.8,39.3 L83.8,79.8 C83.8,97.9 69.2,112.5 51.1,112.5 Z" class="fill-primary-100"/><path id="Shape" stroke-linecap="round" stroke-linejoin="round" stroke-width="3.2" d="M40.9,1.6 C43.6,0.9 46.4,0.6 49.3,0.6 C68.4,0.6 83.8,16.1 83.8,35.1 L83.8,78 C83.8,97.1 68.3,112.5 49.3,112.5 C30.2,112.5 14.8,97 14.8,78 L14.8,35.1 C14.8,25 19.1,15.9 26.1,9.6" class="stroke-primary"/><path id="Shape" stroke-linecap="round" stroke-linejoin="round" stroke-width="3.2" d="M30.5,6.1 C30.7,5.9 31,5.8 31.3,5.6" class="stroke-primary"/><path id="Shape" stroke-linecap="round" stroke-linejoin="round" stroke-width="3.2" d="M97.7,57.2 L97.7,79.1 C97.7,105.8 76,127.5 49.3,127.5 C22.6,127.5 0.9,105.8 0.9,79.1 L0.9,57.2" class="stroke-primary"/><path id="Shape" stroke-linecap="round" stroke-linejoin="round" stroke-width="3.2" d="M49.3,128.7 L49.3,149.1" class="stroke-primary"/><path id="Shape" stroke-linecap="round" stroke-linejoin="round" stroke-width="3.2" d="M25.7,149.6 L72.8,149.6" class="stroke-primary"/><g id="Group" stroke-linecap="round" stroke-linejoin="round" stroke-width="3.2" class="stroke-primary" transform="translate(15.000000, 38.000000)"><path id="Shape" d="M0.5,0 L14.9,0"/><path id="Shape" d="M13.7,18.5 L14.9,18.5"/><path id="Shape" d="M0.5,18.5 L8.3,18.5"/><path id="Shape" d="M0.5,37 L14.9,37"/></g><g id="Group" stroke-linecap="round" stroke-linejoin="round" stroke-width="3.2" class="stroke-primary" transform="translate(69.000000, 38.000000)"><path id="Shape" d="M0.1,0 L14.5,0"/><path id="Shape" d="M0.1,18.5 L14.5,18.5"/><path id="Shape" d="M0.1,37 L7.7,37"/></g></g></g></svg>