<svg xmlns="http://www.w3.org/2000/svg" xmlns:xlink="http://www.w3.org/1999/xlink" width="143" height="151" version="1.1" viewBox="0 0 143 151"><title>Mobile_UI</title><desc>Created with Sketch.</desc><g id="Page-1" fill="none" fill-rule="evenodd" stroke="none" stroke-width="1"><g id="Mobile_UI" transform="translate(2.000000, 1.000000)"><path id="Shape" stroke-dasharray="1 7" stroke-linecap="round" stroke-linejoin="round" stroke-width="3" d="M16.8,51.5 C14.3,46.7 12.8,41.2 12.8,35.4 C12.8,16.3 28.3,0.8 47.4,0.8 C60.6,0.8 72,8.2 77.9,19" class="stroke-primary-300"/><circle id="Oval" cx="20.1" cy="13.9" r="4.6" fill-rule="nonzero" stroke-linecap="round" stroke-linejoin="round" stroke-width="3" class="stroke-primary-300 fill-neutral"/><g id="Group" stroke-linecap="round" stroke-linejoin="round" stroke-width="3" class="stroke-primary-300" transform="translate(0.000000, 147.000000)"><path id="Shape" d="M21.7,0.8 L0,0.8"/><path id="Shape" d="M27,0.8 L26,0.8"/><path id="Shape" d="M107.3,0.8 L32.3,0.8"/><path id="Shape" d="M132.9,0.8 L111.6,0.8"/><path id="Shape" d="M138.4,0.8 L136.8,0.8"/></g><g id="Group" transform="translate(25.000000, 24.000000)"><path id="Shape" fill-rule="nonzero" d="M90.7,115 C90.7,119.9 86.7,123.9 81.8,123.9 L8.9,123.9 C4,123.9 -4.54747351e-13,119.9 -4.54747351e-13,115 L-4.54747351e-13,9.3 C-4.54747351e-13,4.4 4,0.4 8.9,0.4 L81.8,0.4 C86.7,0.4 90.7,4.4 90.7,9.3 L90.7,115 Z" class="fill-neutral"/><path id="Shape" fill-rule="nonzero" d="M90.7,9.2 L90.7,115 C90.7,119.9 86.7,123.9 81.8,123.9 L8.9,123.9 C4,123.9 -4.54747351e-13,119.9 -4.54747351e-13,115 L-4.54747351e-13,9.3 C-4.54747351e-13,4.4 4,0.4 8.9,0.4 L81.8,0.4 C86.8,0.3 90.7,4.3 90.7,9.2 Z" class="fill-primary-200"/><rect id="Rectangle-path" width="90.7" height="99.5" x=".1" y="10.2" fill-rule="nonzero" class="fill-neutral"/><path id="Shape" stroke-linecap="round" stroke-linejoin="round" stroke-width="3" d="M0.1,11 L0.1,9.2 C0.1,4.3 4.1,0.3 9,0.3 L81.9,0.3 C86.8,0.3 90.8,4.3 90.8,9.2 L90.8,115 C90.8,119.9 86.8,123.9 81.9,123.9 L9,123.9 C4.1,123.9 0.1,119.9 0.1,115 L0.1,25.4" class="stroke-primary"/><path id="Shape" stroke-linecap="round" stroke-linejoin="round" stroke-width="3" d="M0.1,15.7 L0.1,15" class="stroke-primary"/><circle id="Oval" cx="45.9" cy="116.6" r="3" stroke-linecap="round" stroke-linejoin="round" stroke-width="3" class="stroke-primary"/><path id="Shape" stroke-linecap="round" stroke-linejoin="round" stroke-width="3" d="M83.5,10.6 L90.1,10.6" class="stroke-primary"/><path id="Shape" stroke-linecap="round" stroke-linejoin="round" stroke-width="3" d="M6.3,10.6 L78.2,10.6" class="stroke-primary"/><path id="Shape" stroke-linecap="round" stroke-linejoin="round" stroke-width="3" d="M75.1,109.3 L0.7,109.3" class="stroke-primary"/><path id="Shape" stroke-linecap="round" stroke-linejoin="round" stroke-width="3" d="M90.1,109.3 L80.6,109.3" class="stroke-primary"/><path id="Shape" stroke-linecap="round" stroke-linejoin="round" stroke-width="3" d="M42.9,5.5 L50.7,5.5" class="stroke-primary"/><path id="Shape" stroke-linecap="round" stroke-linejoin="round" stroke-width="3" d="M37.8,5.5 L38.4,5.5" class="stroke-primary"/></g><g id="Group" fill-rule="nonzero" transform="translate(48.000000, 56.000000)"><path id="Shape" d="M39.5,60.1 L5.6,60.1 C3.6,60.1 2,58.5 2,56.5 L2,7.8 C2,5.8 3.6,4.2 5.6,4.2 L39.5,4.2 C41.5,4.2 43.1,5.8 43.1,7.8 L43.1,56.5 C43.1,58.5 41.5,60.1 39.5,60.1 Z" class="fill-primary-200"/><path id="Shape" stroke-linecap="round" stroke-linejoin="round" stroke-width="3" d="M0.4,9.2 L0.4,3.6 C0.4,1.9 1.8,0.5 3.5,0.5 L41.6,0.5 C43.3,0.5 44.7,1.9 44.7,3.6 L44.7,53.4 C44.7,55.1 43.3,56.5 41.6,56.5 L3.5,56.5 C1.8,56.5 0.4,55.1 0.4,53.4 L0.4,22.7" class="stroke-primary-300 fill-neutral"/><path id="Shape" stroke-linecap="round" stroke-linejoin="round" stroke-width="3" d="M0.4,14.3 L0.4,13.7" class="stroke-primary-300 fill-neutral"/><circle id="Oval" cx="22.5" cy="19.9" r="7.3" stroke-linecap="round" stroke-linejoin="round" stroke-width="3" class="stroke-primary-300 fill-neutral"/><path id="Shape" stroke-linecap="round" stroke-linejoin="round" stroke-width="3" d="M12.7,38.9 L32.4,38.9" class="stroke-primary-300 fill-neutral"/><path id="Shape" stroke-linecap="round" stroke-linejoin="round" stroke-width="3" d="M18.6,45.5 L26.5,45.5" class="stroke-primary-300 fill-neutral"/></g><g id="Group" fill-rule="nonzero" stroke-linecap="round" stroke-linejoin="round" stroke-width="3" class="stroke-primary-300 fill-neutral" transform="translate(101.000000, 59.000000)"><path id="Shape" d="M0.9,33.9 L0.9,3.9 C0.9,2.2 2.3,0.8 4,0.8 L35,0.8 C36.7,0.8 38.1,2.2 38.1,3.9 L38.1,44.7 C38.1,46.4 36.7,47.8 35,47.8 L4,47.8 C2.3,47.8 0.9,46.4 0.9,44.7 L0.9,39.9"/><circle id="Oval" cx="19.5" cy="17.1" r="6.1"/><path id="Shape" d="M11.2,33.1 L27.8,33.1"/><path id="Shape" d="M16.2,38.6 L22.8,38.6"/></g><g id="Group" fill-rule="nonzero" stroke-linecap="round" stroke-linejoin="round" stroke-width="3" class="stroke-primary-300 fill-neutral" transform="translate(1.000000, 59.000000)"><path id="Shape" d="M0.2,33.9 L0.2,3.9 C0.2,2.2 1.6,0.8 3.3,0.8 L34.3,0.8 C36,0.8 37.4,2.2 37.4,3.9 L37.4,44.7 C37.4,46.4 36,47.8 34.3,47.8 L3.3,47.8 C1.6,47.8 0.2,46.4 0.2,44.7 L0.2,39.9"/><circle id="Oval" cx="18.8" cy="17.1" r="6.1"/><path id="Shape" d="M10.5,33.1 L27.1,33.1"/><path id="Shape" d="M15.5,38.6 L22.1,38.6"/></g></g></g></svg>