<svg xmlns="http://www.w3.org/2000/svg" xmlns:xlink="http://www.w3.org/1999/xlink" width="148" height="109" version="1.1" viewBox="0 0 148 109"><title>Online_Store_2</title><desc>Created with Sketch.</desc><g id="Page-1" fill="none" fill-rule="evenodd" stroke="none" stroke-width="1"><g id="Online_Store_2" transform="translate(1.000000, 2.000000)"><g id="Group" fill-rule="nonzero" class="fill-neutral"><path id="Shape" d="M0.9,97.9 C0.9,101.6 3.9,104.6 7.5,104.6 L138.5,104.6 C142.2,104.6 145.1,101.6 145.1,97.9 L145.1,17.1 L0.8,17.1 L0.8,97.9 L0.9,97.9 Z"/><path id="Shape" d="M138.5,0.3 L7.5,0.3 C3.8,0.3 0.9,3.3 0.9,6.9 L0.9,17.1 L102.3,17.1 L122.9,17.1 L145.2,17.1 L145.2,6.9 C145.2,3.2 142.2,0.3 138.5,0.3 Z"/></g><path id="Shape" fill-rule="nonzero" d="M138.5,0.3 L7.5,0.3 C3.8,0.3 0.9,3.3 0.9,6.9 L0.9,17.1 L102.3,17.1 L122.9,17.1 L145.2,17.1 L145.2,6.9 C145.2,3.2 142.2,0.3 138.5,0.3 Z" class="fill-primary-100"/><g id="Group" stroke-linecap="round" stroke-linejoin="round" stroke-width="3" class="stroke-primary"><g id="Shape"><path d="M0.9,17.1 L0.9,97.9 C0.9,101.6 3.9,104.6 7.5,104.6 L138.5,104.6 C142.2,104.6 145.1,101.6 145.1,97.9 L145.1,17.1"/><path d="M114.6,17.1 L102.2,17.1 L0.8,17.1 L0.8,6.9 C0.8,3.2 3.8,0.3 7.4,0.3 L138.4,0.3 C142.1,0.3 145,3.3 145,6.9 L145,17.1"/><path d="M125.9,17.1 L124.7,17.1"/></g><circle id="Oval" cx="10" cy="8.9" r="1"/><circle id="Oval" cx="18.1" cy="8.9" r="1"/><circle id="Oval" cx="26.2" cy="8.9" r="1"/></g><path id="Shape" stroke-linecap="round" stroke-linejoin="round" stroke-width="3" d="M13.9,35.3 L19.8,35.3 C20.9,35.3 21.9,36 22.3,37 L32.4,62.5 C33,64 34.5,65 36.1,65 L58.8,65 C60.4,65 61.9,64 62.5,62.5 L70.7,42.9 C71.1,41.9 70.4,40.7 69.2,40.7 L35.8,40.7" class="stroke-primary"/><circle id="Oval" cx="36.5" cy="77.2" r="4.1" stroke-linecap="round" stroke-linejoin="round" stroke-width="3" class="stroke-primary"/><circle id="Oval" cx="57.5" cy="77.2" r="4.1" stroke-linecap="round" stroke-linejoin="round" stroke-width="3" class="stroke-primary"/><path id="Shape" stroke-linecap="round" stroke-linejoin="round" stroke-width="3" d="M89.6,42.5 L125,42.5" class="stroke-primary"/><path id="Shape" stroke-linecap="round" stroke-linejoin="round" stroke-width="3" d="M89.6,58.8 L125,58.8" class="stroke-primary"/><path id="Shape" stroke-linecap="round" stroke-linejoin="round" stroke-width="3" d="M89.6,75.2 L110,75.2" class="stroke-primary"/></g></g></svg>