<svg xmlns="http://www.w3.org/2000/svg" xmlns:xlink="http://www.w3.org/1999/xlink" width="152" height="107" version="1.1" viewBox="0 0 152 107"><title>Package_sent</title><desc>Created with Sketch.</desc><g id="Page-1" fill="none" fill-rule="evenodd" stroke="none" stroke-width="1"><g id="Package_sent" transform="translate(1.000000, 1.000000)"><g id="Group" stroke-linecap="round" stroke-linejoin="round" stroke-width="3" class="stroke-primary-300" transform="translate(0.000000, 103.000000)"><path id="Shape" d="M1.6,0.9 L0.7,0.9"/><path id="Shape" d="M28.5,0.9 L5.4,0.9"/><path id="Shape" d="M33.5,0.9 L32.6,0.9"/><path id="Shape" d="M110,0.9 L38.6,0.9"/><path id="Shape" d="M143.4,0.9 L114.1,0.9"/><path id="Shape" d="M148.6,0.9 L147.1,0.9"/></g><g id="Group" transform="translate(23.000000, 0.000000)"><path id="Shape" fill-rule="nonzero" d="M103.5,6.7 L103.5,98 C103.5,101.2 100.9,103.9 97.6,103.9 L6.3,103.9 C3.1,103.9 0.4,101.3 0.4,98 L0.4,6.7 C0.4,3.5 3,0.8 6.3,0.8 L97.6,0.8 C100.8,0.9 103.5,3.5 103.5,6.7 Z" class="fill-neutral"/><path id="Shape" fill-rule="nonzero" d="M103.5,10 L103.5,98.2 C103.5,101.3 101,103.9 98,103.9 L11.5,103.9 C10.1,103.9 8.8,103.3 7.8,102.4 C6.7,101.4 6,99.9 6,98.2 L6,10 C6,6.9 8.5,4.3 11.5,4.3 L98,4.3 C101,4.3 103.5,6.8 103.5,10 Z" class="fill-primary-100"/><path id="Shape" fill-rule="nonzero" d="M103.5,47.2 L103.5,98.2 C103.5,101.3 101,103.9 98,103.9 L11.5,103.9 C10.1,103.9 8.8,103.3 7.8,102.4 C67.3,96.2 92.1,72.8 103.5,47.2 Z" class="fill-primary-200"/><path id="Shape" stroke-linecap="round" stroke-linejoin="round" stroke-width="3" d="M30.9,0.9 L97.7,0.9 C100.9,0.9 103.6,3.5 103.6,6.8 L103.6,98.1 C103.6,101.3 101,104 97.7,104 L6.4,104 C3.2,104 0.5,101.4 0.5,98.1 L0.5,6.8 C0.5,3.6 3.1,0.9 6.4,0.9 L14,0.9" class="stroke-primary"/><path id="Shape" stroke-linecap="round" stroke-linejoin="round" stroke-width="3" d="M19.1,0.9 L19.6,0.9" class="stroke-primary"/><polyline id="Shape" fill-rule="nonzero" points="39.9 4.7 64.2 4.7 64.2 29.3 57.3 35.2 47.5 29.3 39.7 35.2" class="fill-primary-300"/><polyline id="Shape" stroke-linecap="round" stroke-linejoin="round" stroke-width="3" points="39.9 .9 64.2 .9 64.2 29.3 57.3 35.2 47.5 29.3 39.7 35.2 39.7 6.8" class="stroke-primary"/><g id="Shape" stroke-linecap="round" stroke-linejoin="round" stroke-width="3" class="stroke-primary"><path d="M7.5,0.5 L31.6,0.5" transform="translate(71.000000, 94.000000)"/><path d="M0.4,0.5 L0.7,0.5" transform="translate(71.000000, 94.000000)"/></g><polyline id="Shape" stroke-linecap="round" stroke-linejoin="round" stroke-width="3" points="17.1 75.8 23 69.9 28.9 75.8" class="stroke-primary"/><path id="Shape" stroke-linecap="round" stroke-linejoin="round" stroke-width="3" d="M23,70.7 L23,82.1" class="stroke-primary"/><polyline id="Shape" stroke-linecap="round" stroke-linejoin="round" stroke-width="3" points="34.4 75.8 40.3 69.9 46.2 75.8" class="stroke-primary"/><path id="Shape" stroke-linecap="round" stroke-linejoin="round" stroke-width="3" d="M40.3,70.7 L40.3,82.1" class="stroke-primary"/><path id="Shape" stroke-linecap="round" stroke-linejoin="round" stroke-width="3" d="M17.1,87.6 L46.3,87.6" class="stroke-primary"/></g></g></g></svg>