<svg xmlns="http://www.w3.org/2000/svg" xmlns:xlink="http://www.w3.org/1999/xlink" width="118" height="149" version="1.1" viewBox="0 0 118 149"><title>Pants</title><desc>Created with Sketch.</desc><g id="Page-1" fill="none" fill-rule="evenodd" stroke="none" stroke-width="1"><g id="Pants" transform="translate(1.000000, 2.000000)"><polygon id="Shape" fill-rule="nonzero" points="115.3 139.1 82.3 143.7 79.6 144.1 58.8 61 55.6 48.4 34 144.8 5.9 141.4 .5 140.8 22.3 .3 88 .3 89.3 7" class="fill-neutral"/><polygon id="Shape" fill-rule="nonzero" points="79.7 133.2 112.6 128.2 114.7 139.2 82.4 143.8" class="fill-primary-200"/><path id="Shape" fill-rule="nonzero" d="M33,144.8 L6.2,141.3 L7.7,131.2 C7.7,131.2 27.3,134.8 35.9,135.9 C35.9,135.9 35.9,136 36,136" class="fill-primary-200"/><polygon id="Shape" fill-rule="nonzero" points="113.2 128.3 79.6 133.2 60.1 55.1 58.8 61 55.6 48.4 36 136 7.5 131.4 26.7 7 89.3 7" class="fill-primary-100"/><polyline id="Shape" stroke-linecap="round" stroke-linejoin="round" stroke-width="3" points="44.3 .3 88 .3 115.3 139.1 79.6 144.1 55.6 48.4 34 144.8 .5 140.8 22.3 .3 29 .3" class="stroke-primary"/><path id="Shape" stroke-linecap="round" stroke-linejoin="round" stroke-width="3" d="M33.5,0.3 L33.9,0.3" class="stroke-primary"/><path id="Shape" stroke-linecap="round" stroke-linejoin="round" stroke-width="3" d="M38,15.6 C38.1,15.4 38.3,15.2 38.4,14.9" class="stroke-primary"/><path id="Shape" stroke-linecap="round" stroke-linejoin="round" stroke-width="3" d="M17.9,30 C25.2,28.2 30.4,25 34.2,20.9" class="stroke-primary"/><path id="Shape" stroke-linecap="round" stroke-linejoin="round" stroke-width="3" d="M87.9,28.3 C89.5,29 91.3,29.5 93.2,30" class="stroke-primary"/><path id="Shape" stroke-linecap="round" stroke-linejoin="round" stroke-width="3" d="M71.4,12.2 C73.8,17.5 77.2,22 82.2,25.3" class="stroke-primary"/><path id="Shape" stroke-linecap="round" stroke-linejoin="round" stroke-width="3" d="M55.6,35.1 L55.6,8" class="stroke-primary"/><path id="Shape" stroke-linecap="round" stroke-linejoin="round" stroke-width="3" d="M22.3,133.8 L2.5,130.9" class="stroke-primary"/><path id="Shape" stroke-linecap="round" stroke-linejoin="round" stroke-width="3" d="M27.9,134.6 L27.6,134.6" class="stroke-primary"/><path id="Shape" stroke-linecap="round" stroke-linejoin="round" stroke-width="3" d="M113.2,128.1 L88.7,131.7" class="stroke-primary"/><path id="Shape" stroke-linecap="round" stroke-linejoin="round" stroke-width="3" d="M28.6,8 L88.9,8" class="stroke-primary"/></g></g></svg>