<svg xmlns="http://www.w3.org/2000/svg" xmlns:xlink="http://www.w3.org/1999/xlink" width="151" height="145" version="1.1" viewBox="0 0 151 145"><title>Safe</title><desc>Created with Sketch.</desc><g id="Page-1" fill="none" fill-rule="evenodd" stroke="none" stroke-width="1"><g id="Safe" transform="translate(2.000000, 1.000000)"><g id="Group" stroke-linecap="round" stroke-linejoin="round" stroke-width="3" class="stroke-primary-300" transform="translate(0.000000, 141.000000)"><path id="Shape" d="M1.5,0.7 L0.4,0.7"/><path id="Shape" d="M16.1,0.7 L5.8,0.7"/><path id="Shape" d="M21.8,0.7 L20.8,0.7"/><path id="Shape" d="M109,0.7 L27.6,0.7"/><path id="Shape" d="M147,0.7 L113.6,0.7"/></g><polygon id="Shape" fill-rule="nonzero" stroke-linecap="round" stroke-linejoin="round" stroke-width="3" points="40 141.4 29.9 141.4 27.9 135.3 42 135.3" class="stroke-primary fill-primary-500"/><polygon id="Shape" fill-rule="nonzero" stroke-linecap="round" stroke-linejoin="round" stroke-width="3" points="115 141.4 104.9 141.4 102.9 135.3 117 135.3" class="stroke-primary fill-primary-500"/><path id="Shape" fill-rule="nonzero" d="M133.4,136.3 L15,136.3 C10.6,136.3 7.1,132.8 7.1,128.4 L7.1,8.6 C7.1,4.2 10.6,0.7 15,0.7 L133.4,0.7 C137.8,0.7 141.3,4.2 141.3,8.6 L141.3,128.4 C141.3,132.8 137.8,136.3 133.4,136.3 Z" class="fill-neutral"/><path id="Shape" fill="#BAD8FF" fill-rule="nonzero" d="M141.5,17.6 L141.5,128.6 C141.5,132.8 138.1,136.3 133.9,136.3 L18.9,136.3 C14.7,136.3 11.3,132.9 11.3,128.6 L11.3,17.6 C11.3,13.5 14.7,10.2 18.9,10.2 L133.8,10.2 C138.1,10.2 141.5,13.5 141.5,17.6 Z"/><path id="Shape" fill-rule="nonzero" d="M141.5,17.6 L141.5,118.2 C141.5,122.3 138.1,125.6 133.9,125.6 L18.9,125.6 C14.7,125.6 11.3,122.3 11.3,118.2 L11.3,17.6 C11.3,13.5 14.7,10.2 18.9,10.2 L133.8,10.2 C138.1,10.2 141.5,13.5 141.5,17.6 Z" class="fill-primary-100"/><path id="Shape" stroke-linecap="round" stroke-linejoin="round" stroke-width="3" d="M45.9,0.7 L133.5,0.7 C137.8,0.7 141.4,4.3 141.4,8.6 L141.4,128.3 C141.4,132.7 137.9,136.2 133.5,136.2 L15,136.2 C10.7,136.2 7.1,132.6 7.1,128.3 L7.1,8.6 C7.1,4.2 10.6,0.7 15,0.7 L25.7,0.7" class="stroke-primary"/><path id="Shape" stroke-linecap="round" stroke-linejoin="round" stroke-width="3" d="M31.3,0.7 L32.2,0.7" class="stroke-primary"/><path id="Shape" fill-rule="nonzero" d="M119.5,120.4 L28.9,120.4 C25.6,120.4 22.9,117.7 22.9,114.4 L22.9,22.8 C22.9,19.5 25.6,16.8 28.9,16.8 L119.5,16.8 C122.8,16.8 125.5,19.5 125.5,22.8 L125.5,114.4 C125.6,117.7 122.9,120.4 119.5,120.4 Z" class="fill-neutral"/><path id="Shape" fill-rule="nonzero" d="M119.5,119.5 L28.9,119.5 C25.6,119.5 22.9,116.8 22.9,113.5 L22.9,21.9 C22.9,18.6 25.6,15.9 28.9,15.9 L119.5,15.9 C122.8,15.9 125.5,18.6 125.5,21.9 L125.5,113.5 C125.6,116.8 122.9,119.5 119.5,119.5 Z" class="fill-neutral"/><path id="Shape" fill-rule="nonzero" d="M119.8,120.4 L34.8,120.4 C31.6,120.4 29.1,117.8 29.1,114.7 L29.1,27.7 C29.1,24.5 31.7,22 34.8,22 L119.8,22 C123,22 125.5,24.6 125.5,27.7 L125.5,114.7 C125.6,117.8 123,120.4 119.8,120.4 Z" class="fill-primary-100"/><path id="Shape" stroke-linecap="round" stroke-linejoin="round" stroke-width="3" d="M100.3,95.2 L47.6,42.4" class="stroke-primary"/><path id="Shape" stroke-linecap="round" stroke-linejoin="round" stroke-width="3" d="M47.6,95.2 L100.3,42.4" class="stroke-primary"/><path id="Shape" stroke-linecap="round" stroke-linejoin="round" stroke-width="3" d="M93.1,120.4 L28.9,120.4 C25.6,120.4 22.9,117.7 22.9,114.3 L22.9,22.7 C22.9,19.3 25.6,16.6 28.9,16.6 L119.5,16.6 C122.8,16.6 125.5,19.3 125.5,22.7 L125.5,24.9" class="stroke-primary"/><path id="Shape" stroke-linecap="round" stroke-linejoin="round" stroke-width="3" d="M114.3,120.4 L104,120.4" class="stroke-primary"/><path id="Shape" stroke-linecap="round" stroke-linejoin="round" stroke-width="3" d="M125.6,29.7 L125.6,114.3 C125.6,117.7 122.9,120.4 119.6,120.4 L118.4,120.4" class="stroke-primary"/><polyline id="Shape" fill-rule="nonzero" stroke-linecap="round" stroke-linejoin="round" stroke-width="3" points="121.7 37.8 121.7 29.7 129 29.7 129 51.8 121.7 51.8 121.7 50" class="stroke-primary fill-neutral"/><rect id="Rectangle-path" width="7.3" height="22.1" x="121.7" y="81.2" fill-rule="nonzero" stroke-linecap="round" stroke-linejoin="round" stroke-width="3" class="stroke-primary fill-neutral"/><ellipse id="Oval" cx="74.2" cy="68.5" fill-rule="nonzero" class="fill-neutral" rx="18.4" ry="18.6"/><ellipse id="Oval" cx="76.1" cy="70.4" fill-rule="nonzero" class="fill-primary-100" rx="16.6" ry="16.8"/><path id="Shape" stroke-linecap="round" stroke-linejoin="round" stroke-width="3" d="M65.3,52.2 C65.4,52.1 65.6,52.1 65.7,52" class="stroke-primary"/><path id="Shape" stroke-linecap="round" stroke-linejoin="round" stroke-width="3" d="M83.4,84.6 C80.7,86.2 77.6,87.1 74.2,87.1 C64,87.1 55.8,78.8 55.8,68.5 C55.8,63.8 57.5,59.5 60.4,56.2" class="stroke-primary"/><path id="Shape" stroke-linecap="round" stroke-linejoin="round" stroke-width="3" d="M68.5,50.8 C70.3,50.2 72.2,49.9 74.3,49.9 C84.5,49.9 92.7,58.2 92.7,68.5 C92.7,73.1 91,77.4 88.2,80.6" class="stroke-primary"/><circle id="Oval" cx="74.2" cy="68.5" r="6.9" fill-rule="nonzero" stroke-linecap="round" stroke-linejoin="round" stroke-width="3" class="stroke-primary fill-primary-500"/></g></g></svg>