<svg xmlns="http://www.w3.org/2000/svg" xmlns:xlink="http://www.w3.org/1999/xlink" width="142" height="145" version="1.1" viewBox="0 0 142 145"><title>Scales</title><desc>Created with Sketch.</desc><g id="Page-1" fill="none" fill-rule="evenodd" stroke="none" stroke-width="1"><g id="Scales" transform="translate(1.000000, 2.000000)"><path id="Shape" fill-rule="nonzero" d="M52.6,105.4 C49.4,116.8 39,125.1 26.6,125.1 C14.2,125.1 3.8,116.8 0.6,105.4 L52.6,105.4 Z" class="fill-neutral"/><path id="Shape" fill-rule="nonzero" d="M139,74.3 C135.8,85.7 125.4,94 113,94 C100.6,94 90.2,85.7 87,74.3 L139,74.3 Z" class="fill-neutral"/><path id="Shape" fill-rule="nonzero" d="M52.6,109.5 C49.7,118.5 40.4,125.1 29.3,125.1 C21.7,125.1 14.9,122 10.5,117.2 C7.8,114.3 9.9,109.5 13.9,109.5 L52.6,109.5 Z" class="fill-primary-300"/><path id="Shape" fill-rule="nonzero" d="M139,78.2 C136.3,87.3 127.2,94 116.5,94 C108.4,94 101.3,90.2 97.1,84.3 C95.3,81.7 97.2,78.1 100.3,78.1 L139,78.1 L139,78.2 Z" class="fill-primary-300"/><path id="Shape" stroke-linecap="round" stroke-linejoin="round" stroke-width="3" d="M77,18 L126.6,0.2" class="stroke-primary"/><path id="Shape" stroke-linecap="round" stroke-linejoin="round" stroke-width="3" d="M11.1,41.7 L60.4,24" class="stroke-primary"/><path id="Shape" stroke-linecap="round" stroke-linejoin="round" stroke-width="3" d="M68.9,30.1 L68.9,140.6" class="stroke-primary"/><path id="Shape" stroke-linecap="round" stroke-linejoin="round" stroke-width="3" d="M103.3,140.6 L104,140.6" class="stroke-primary"/><path id="Shape" stroke-linecap="round" stroke-linejoin="round" stroke-width="3" d="M33.7,140.6 L95.6,140.6" class="stroke-primary"/><path id="Shape" stroke-linecap="round" stroke-linejoin="round" stroke-width="3" d="M52.6,105.4 C49.4,116.8 39,125.1 26.6,125.1 C14.2,125.1 3.8,116.8 0.6,105.4 L52.6,105.4 Z" class="stroke-primary"/><polyline id="Shape" stroke-linecap="round" stroke-linejoin="round" stroke-width="3" points="9.4 85 26.2 46.4 52.6 105.4" class="stroke-primary"/><path id="Shape" stroke-linecap="round" stroke-linejoin="round" stroke-width="3" d="M5.7,93.7 L6.4,91.9" class="stroke-primary"/><path id="Shape" stroke-linecap="round" stroke-linejoin="round" stroke-width="3" d="M0.6,105.4 L2.3,101.3" class="stroke-primary"/><path id="Shape" stroke-linecap="round" stroke-linejoin="round" stroke-width="3" d="M139,74.3 C135.8,85.7 125.4,94 113,94 C100.6,94 90.2,85.7 87,74.3 L139,74.3 Z" class="stroke-primary"/><polyline id="Shape" stroke-linecap="round" stroke-linejoin="round" stroke-width="3" points="87 74.3 112.6 15.3 139 74.3" class="stroke-primary"/><circle id="Oval" cx="68.9" cy="21.3" r="8.8" fill-rule="nonzero" class="fill-neutral"/><circle id="Oval" cx="70.6" cy="23.1" r="7" fill-rule="nonzero" class="fill-primary-300"/><circle id="Oval" cx="68.9" cy="21.3" r="8.8" stroke-linecap="round" stroke-linejoin="round" stroke-width="3" class="stroke-primary"/></g></g></svg>