<svg xmlns="http://www.w3.org/2000/svg" xmlns:xlink="http://www.w3.org/1999/xlink" width="149" height="123" version="1.1" viewBox="0 0 149 123"><title>Servers_2</title><desc>Created with Sketch.</desc><g id="Page-1" fill="none" fill-rule="evenodd" stroke="none" stroke-width="1"><g id="Servers_2" transform="translate(1.000000, 1.000000)"><g id="Group" stroke-linecap="round" stroke-linejoin="round" stroke-width="2.759" class="stroke-primary-300" transform="translate(0.000000, 120.000000)"><path id="Shape" d="M1.4,0.5 L0.4,0.5"/><path id="Shape" d="M27.3,0.5 L5.5,0.5"/><path id="Shape" d="M32.6,0.5 L31.6,0.5"/><path id="Shape" d="M114.7,0.5 L38.1,0.5"/><path id="Shape" d="M146.5,0.5 L119,0.5"/></g><rect id="Rectangle-path" width="92.1" height="12.3" x="37.2" y="28.6" fill="#63A9FF" fill-rule="nonzero"/><rect id="Rectangle-path" width="92.1" height="3.2" x="37.2" y="31.8" fill="#4A9BFF" fill-rule="nonzero"/><rect id="Rectangle-path" width="92.1" height="12.3" x="37.2" y="28.6" stroke-linecap="round" stroke-linejoin="round" stroke-width="2.759" class="stroke-primary"/><polyline id="Shape" fill="#9ECBFF" fill-rule="nonzero" points="23.3 32.7 23.3 28.6 115.3 28.6 115.3 40.9 23.3 40.9 23.3 36.7"/><rect id="Rectangle-path" width="92.1" height="3.2" x="23.3" y="31.8" fill="#75B5FF" fill-rule="nonzero"/><polyline id="Shape" stroke-linecap="round" stroke-linejoin="round" stroke-width="2.759" points="23.3 32.7 23.3 28.6 115.3 28.6 115.3 40.9 23.3 40.9 23.3 36.7" class="stroke-primary"/><path id="Shape" fill-rule="nonzero" d="M127,31.6 L25,31.6 C21.9,31.6 19.3,29 19.3,25.9 L19.3,6.3 C19.3,3.2 21.9,0.6 25,0.6 L127,0.6 C130.1,0.6 132.7,3.2 132.7,6.3 L132.7,25.9 C132.7,29 130.2,31.6 127,31.6 Z" class="fill-neutral"/><path id="Shape" fill-rule="nonzero" d="M127,31.6 L44.2,31.6 C41.1,31.6 38.5,29 38.5,25.9 L38.5,9.5 C38.5,6.4 41.1,3.8 44.2,3.8 L128.2,3.8 C130.7,3.8 132.7,5.8 132.7,8.3 L132.7,25.9 C132.7,29 130.2,31.6 127,31.6 Z" class="fill-primary-400"/><path id="Shape" stroke-linecap="round" stroke-linejoin="round" stroke-width="2.759" d="M42.5,0.5 L129.2,0.5 C131,0.5 132.5,2 132.5,3.8 L132.5,28.2 C132.5,30 131,31.5 129.2,31.5 L84.2,31.5" class="stroke-primary"/><path id="Shape" fill-rule="nonzero" d="M113.4,31.6 L25.8,31.6 C24,31.6 22.5,30.1 22.5,28.3 L22.5,7 C22.5,5.2 24,3.7 25.8,3.7 L116.5,3.7 C116.6,5.2 116.7,5.2 116.7,7 L116.7,28.2 C116.7,30.1 115.2,31.6 113.4,31.6 Z" class="fill-primary-200"/><path id="Shape" stroke-linecap="round" stroke-linejoin="round" stroke-width="2.759" d="M32.6,0.5 L113.4,0.5 C115.2,0.5 116.7,2 116.7,3.8 L116.7,28.2 C116.7,30 115.2,31.5 113.4,31.5 L22.6,31.5 C20.8,31.5 19.3,30 19.3,28.2 L19.3,3.8 C19.3,2 20.8,0.5 22.6,0.5 L24.8,0.5" class="stroke-primary"/><path id="Shape" stroke-linecap="round" stroke-linejoin="round" stroke-width="2.759" d="M27.5,0.5 L27.8,0.5" class="stroke-primary"/><g id="Group" fill-rule="nonzero" class="fill-primary" transform="translate(55.000000, 9.000000)"><circle id="Oval" cx="2.412" cy="1.912" r="1.3" transform="translate(2.411640, 1.912440) rotate(-45.000000) translate(-2.411640, -1.912440)"/><circle id="Oval" cx="2.421" cy="7.809" r="1.3" transform="translate(2.420930, 7.808730) rotate(-45.000000) translate(-2.420930, -7.808730)"/><circle id="Oval" cx="2.43" cy="13.705" r="1.3" transform="translate(2.429720, 13.705020) rotate(-45.000000) translate(-2.429720, -13.705020)"/><circle id="Oval" cx="8.371" cy="5.177" r="1.3" transform="translate(8.370560, 5.177480) rotate(-45.000000) translate(-8.370560, -5.177480)"/><circle id="Oval" cx="8.309" cy="11.003" r="1.3" transform="translate(8.309140, 11.003060) rotate(-45.000000) translate(-8.309140, -11.003060)"/><circle id="Oval" cx="14.204" cy="1.895" r="1.3" transform="translate(14.204220, 1.894660) rotate(-45.000000) translate(-14.204220, -1.894660)"/><circle id="Oval" cx="14.214" cy="7.791" r="1.3" transform="translate(14.213510, 7.790850) rotate(-45.000000) translate(-14.213510, -7.790850)"/><circle id="Oval" cx="14.222" cy="13.687" r="1.3" transform="translate(14.222300, 13.687140) rotate(-45.000000) translate(-14.222300, -13.687140)"/><circle id="Oval" cx="20.163" cy="5.16" r="1.3" transform="translate(20.163140, 5.159700) rotate(-45.000000) translate(-20.163140, -5.159700)"/><circle id="Oval" cx="20.102" cy="10.985" r="1.3" transform="translate(20.101720, 10.985180) rotate(-45.000000) translate(-20.101720, -10.985180)"/><circle id="Oval" cx="25.997" cy="1.877" r="1.3" transform="translate(25.996700, 1.876780) rotate(-45.000000) translate(-25.996700, -1.876780)"/><circle id="Oval" cx="26.005" cy="7.773" r="1.3" transform="translate(26.005490, 7.773070) rotate(-45.000000) translate(-26.005490, -7.773070)"/><circle id="Oval" cx="26.015" cy="13.669" r="1.3" transform="translate(26.014780, 13.669260) rotate(-45.000000) translate(-26.014780, -13.669260)"/><circle id="Oval" cx="31.956" cy="5.142" r="1.3" transform="translate(31.955620, 5.141820) rotate(-45.000000) translate(-31.955620, -5.141820)"/><circle id="Oval" cx="31.894" cy="10.967" r="1.3" transform="translate(31.894200, 10.967400) rotate(-45.000000) translate(-31.894200, -10.967400)"/><circle id="Oval" cx="37.789" cy="1.859" r="1.3" transform="translate(37.789180, 1.858900) rotate(-45.000000) translate(-37.789180, -1.858900)"/><circle id="Oval" cx="37.798" cy="7.755" r="1.3" transform="translate(37.797970, 7.754890) rotate(-45.000000) translate(-37.797970, -7.754890)"/><circle id="Oval" cx="37.807" cy="13.651" r="1.3" transform="translate(37.807260, 13.651180) rotate(-45.000000) translate(-37.807260, -13.651180)"/><circle id="Oval" cx="43.748" cy="5.124" r="1.3" transform="translate(43.748100, 5.123740) rotate(-45.000000) translate(-43.748100, -5.123740)"/><circle id="Oval" cx="43.686" cy="10.949" r="1.3" transform="translate(43.686180, 10.949220) rotate(-45.000000) translate(-43.686180, -10.949220)"/><circle id="Oval" cx="49.511" cy="1.912" r="1.3" transform="translate(49.510950, 1.911530) rotate(-45.000000) translate(-49.510950, -1.911530)"/><circle id="Oval" cx="49.52" cy="7.808" r="1.3" transform="translate(49.519840, 7.807820) rotate(-45.000000) translate(-49.519840, -7.807820)"/><circle id="Oval" cx="49.529" cy="13.704" r="1.3" transform="translate(49.529130, 13.704010) rotate(-45.000000) translate(-49.529130, -13.704010)"/></g><circle id="Oval" cx="36.1" cy="17.4" r="6.4" fill-rule="nonzero" class="fill-neutral"/><path id="Shape" stroke-linecap="round" stroke-width="2.759" d="M35.4,11 C35.6,11 35.9,11 36.1,11 C39.6,11 42.5,13.9 42.5,17.4 C42.5,20.9 39.6,23.8 36.1,23.8 C32.6,23.8 29.7,20.9 29.7,17.4 C29.7,16.6 29.8,15.9 30.1,15.2" class="stroke-primary"/><path id="Shape" stroke-linecap="round" stroke-width="2.759" d="M31.7,12.7 C31.8,12.6 31.8,12.6 31.9,12.5" class="stroke-primary"/><rect id="Rectangle-path" width="92.1" height="12.3" x="37.2" y="68.2" fill="#63A9FF" fill-rule="nonzero"/><rect id="Rectangle-path" width="92.1" height="3.2" x="37.2" y="71.4" fill="#4A9BFF" fill-rule="nonzero"/><rect id="Rectangle-path" width="92.1" height="12.3" x="37.2" y="68.2" stroke-linecap="round" stroke-linejoin="round" stroke-width="2.759" class="stroke-primary"/><polyline id="Shape" fill="#9ECBFF" fill-rule="nonzero" points="23.3 72.3 23.3 68.2 115.3 68.2 115.3 80.5 23.3 80.5 23.3 76.3"/><rect id="Rectangle-path" width="92.1" height="3.2" x="23.3" y="71.4" fill="#75B5FF" fill-rule="nonzero"/><polyline id="Shape" stroke-linecap="round" stroke-linejoin="round" stroke-width="2.759" points="23.3 72.3 23.3 68.2 115.3 68.2 115.3 80.5 23.3 80.5 23.3 76.3" class="stroke-primary"/><path id="Shape" fill-rule="nonzero" d="M127,71.2 L25,71.2 C21.9,71.2 19.3,68.6 19.3,65.5 L19.3,45.9 C19.3,42.8 21.9,40.2 25,40.2 L127,40.2 C130.1,40.2 132.7,42.8 132.7,45.9 L132.7,65.5 C132.7,68.6 130.2,71.2 127,71.2 Z" class="fill-neutral"/><path id="Shape" fill-rule="nonzero" d="M127,71.2 L44.2,71.2 C41.1,71.2 38.5,68.6 38.5,65.5 L38.5,49 C38.5,45.9 41.1,43.3 44.2,43.3 L128.2,43.3 C130.7,43.3 132.7,45.3 132.7,47.8 L132.7,65.4 C132.7,68.6 130.2,71.2 127,71.2 Z" class="fill-primary-400"/><path id="Shape" stroke-linecap="round" stroke-linejoin="round" stroke-width="2.759" d="M42.5,40.1 L129.2,40.1 C131,40.1 132.5,41.6 132.5,43.4 L132.5,67.8 C132.5,69.6 131,71.1 129.2,71.1 L84.2,71.1" class="stroke-primary"/><path id="Shape" fill-rule="nonzero" d="M113.4,71.2 L25.8,71.2 C24,71.2 22.5,69.7 22.5,67.9 L22.5,46.7 C22.5,44.9 24,43.4 25.8,43.4 L116.5,43.4 C116.6,44.9 116.7,44.9 116.7,46.7 L116.7,67.9 C116.7,69.7 115.2,71.2 113.4,71.2 Z" class="fill-primary-200"/><path id="Shape" stroke-linecap="round" stroke-linejoin="round" stroke-width="2.759" d="M32.6,40.1 L113.4,40.1 C115.2,40.1 116.7,41.6 116.7,43.4 L116.7,67.8 C116.7,69.6 115.2,71.1 113.4,71.1 L22.6,71.1 C20.8,71.1 19.3,69.6 19.3,67.8 L19.3,43.4 C19.3,41.6 20.8,40.1 22.6,40.1 L24.8,40.1" class="stroke-primary"/><path id="Shape" stroke-linecap="round" stroke-linejoin="round" stroke-width="2.759" d="M27.5,40.1 L27.8,40.1" class="stroke-primary"/><g id="Group" fill-rule="nonzero" class="fill-primary" transform="translate(55.000000, 48.000000)"><circle id="Oval" cx="2.479" cy="2.584" r="1.3" transform="translate(2.478610, 2.584410) rotate(-45.000000) translate(-2.478610, -2.584410)"/><circle id="Oval" cx="2.417" cy="8.41" r="1.3" transform="translate(2.416790, 8.409990) rotate(-45.000000) translate(-2.416790, -8.409990)"/><circle id="Oval" cx="2.426" cy="14.306" r="1.3" transform="translate(2.425580, 14.306280) rotate(-45.000000) translate(-2.425580, -14.306280)"/><circle id="Oval" cx="8.367" cy="5.779" r="1.3" transform="translate(8.366920, 5.778740) rotate(-45.000000) translate(-8.366920, -5.778740)"/><circle id="Oval" cx="8.376" cy="11.675" r="1.3" transform="translate(8.375710, 11.675030) rotate(-45.000000) translate(-8.375710, -11.675030)"/><circle id="Oval" cx="14.271" cy="2.567" r="1.3" transform="translate(14.271190, 2.566630) rotate(-45.000000) translate(-14.271190, -2.566630)"/><circle id="Oval" cx="14.209" cy="8.392" r="1.3" transform="translate(14.209270, 8.392110) rotate(-45.000000) translate(-14.209270, -8.392110)"/><circle id="Oval" cx="14.218" cy="14.288" r="1.3" transform="translate(14.218060, 14.288400) rotate(-45.000000) translate(-14.218060, -14.288400)"/><circle id="Oval" cx="20.159" cy="5.761" r="1.3" transform="translate(20.159400, 5.760960) rotate(-45.000000) translate(-20.159400, -5.760960)"/><circle id="Oval" cx="20.168" cy="11.657" r="1.3" transform="translate(20.168190, 11.657150) rotate(-45.000000) translate(-20.168190, -11.657150)"/><circle id="Oval" cx="26.063" cy="2.549" r="1.3" transform="translate(26.063170, 2.548750) rotate(-45.000000) translate(-26.063170, -2.548750)"/><circle id="Oval" cx="26.002" cy="8.374" r="1.3" transform="translate(26.001750, 8.374230) rotate(-45.000000) translate(-26.001750, -8.374230)"/><circle id="Oval" cx="26.011" cy="14.271" r="1.3" transform="translate(26.010540, 14.270520) rotate(-45.000000) translate(-26.010540, -14.270520)"/><circle id="Oval" cx="31.952" cy="5.743" r="1.3" transform="translate(31.951880, 5.743080) rotate(-45.000000) translate(-31.951880, -5.743080)"/><circle id="Oval" cx="31.961" cy="11.639" r="1.3" transform="translate(31.960670, 11.639370) rotate(-45.000000) translate(-31.960670, -11.639370)"/><circle id="Oval" cx="37.856" cy="2.531" r="1.3" transform="translate(37.855650, 2.530870) rotate(-45.000000) translate(-37.855650, -2.530870)"/><circle id="Oval" cx="37.794" cy="8.356" r="1.3" transform="translate(37.794330, 8.356450) rotate(-45.000000) translate(-37.794330, -8.356450)"/><circle id="Oval" cx="37.803" cy="14.253" r="1.3" transform="translate(37.803120, 14.252640) rotate(-45.000000) translate(-37.803120, -14.252640)"/><circle id="Oval" cx="43.744" cy="5.725" r="1.3" transform="translate(43.743960, 5.725200) rotate(-45.000000) translate(-43.743960, -5.725200)"/><circle id="Oval" cx="43.753" cy="11.621" r="1.3" transform="translate(43.753250, 11.621190) rotate(-45.000000) translate(-43.753250, -11.621190)"/><circle id="Oval" cx="49.578" cy="2.583" r="1.3" transform="translate(49.577520, 2.583500) rotate(-45.000000) translate(-49.577520, -2.583500)"/><circle id="Oval" cx="49.516" cy="8.409" r="1.3" transform="translate(49.516100, 8.409080) rotate(-45.000000) translate(-49.516100, -8.409080)"/><circle id="Oval" cx="49.525" cy="14.305" r="1.3" transform="translate(49.524890, 14.305270) rotate(-45.000000) translate(-49.524890, -14.305270)"/></g><circle id="Oval" cx="36.1" cy="57" r="6.4" fill-rule="nonzero" class="fill-neutral"/><circle id="Oval" cx="36.1" cy="57" r="6.4" stroke-width="2.759" class="stroke-primary"/><rect id="Rectangle-path" width="92.1" height="12.3" x="37.2" y="107.8" fill="#63A9FF" fill-rule="nonzero"/><rect id="Rectangle-path" width="92.1" height="3.2" x="37.2" y="111" fill="#4A9BFF" fill-rule="nonzero"/><rect id="Rectangle-path" width="92.1" height="12.3" x="37.2" y="107.8" stroke-linecap="round" stroke-linejoin="round" stroke-width="2.759" class="stroke-primary"/><polyline id="Shape" fill="#9ECBFF" fill-rule="nonzero" points="23.3 111.9 23.3 107.8 115.3 107.8 115.3 120.1 23.3 120.1 23.3 115.9"/><rect id="Rectangle-path" width="92.1" height="3.2" x="23.3" y="111" fill="#75B5FF" fill-rule="nonzero"/><polyline id="Shape" stroke-linecap="round" stroke-linejoin="round" stroke-width="2.759" points="23.3 111.9 23.3 107.8 115.3 107.8 115.3 120.1 23.3 120.1 23.3 115.9" class="stroke-primary"/><path id="Shape" fill-rule="nonzero" d="M127,110.8 L25,110.8 C21.9,110.8 19.3,108.2 19.3,105.1 L19.3,85.5 C19.3,82.4 21.9,79.8 25,79.8 L127,79.8 C130.1,79.8 132.7,82.4 132.7,85.5 L132.7,105.1 C132.7,108.2 130.2,110.8 127,110.8 Z" class="fill-neutral"/><path id="Shape" fill-rule="nonzero" d="M127,110.8 L44.2,110.8 C41.1,110.8 38.5,108.2 38.5,105.1 L38.5,88.7 C38.5,85.6 41.1,83 44.2,83 L128.2,83 C130.7,83 132.7,85 132.7,87.5 L132.7,105.1 C132.7,108.2 130.2,110.8 127,110.8 Z" class="fill-primary-400"/><path id="Shape" stroke-linecap="round" stroke-linejoin="round" stroke-width="2.759" d="M42.5,79.7 L129.2,79.7 C131,79.7 132.5,81.2 132.5,83 L132.5,107.4 C132.5,109.2 131,110.7 129.2,110.7 L84.2,110.7" class="stroke-primary"/><path id="Shape" fill-rule="nonzero" d="M113.4,110.8 L25.8,110.8 C24,110.8 22.5,109.3 22.5,107.5 L22.5,86.3 C22.5,84.5 24,83 25.8,83 L116.5,83 C116.6,84.5 116.7,84.5 116.7,86.3 L116.7,107.5 C116.7,109.3 115.2,110.8 113.4,110.8 Z" class="fill-primary-200"/><path id="Shape" stroke-linecap="round" stroke-linejoin="round" stroke-width="2.759" d="M32.6,79.7 L113.4,79.7 C115.2,79.7 116.7,81.2 116.7,83 L116.7,107.4 C116.7,109.2 115.2,110.7 113.4,110.7 L22.6,110.7 C20.8,110.7 19.3,109.2 19.3,107.4 L19.3,83 C19.3,81.2 20.8,79.7 22.6,79.7 L24.8,79.7" class="stroke-primary"/><path id="Shape" stroke-linecap="round" stroke-linejoin="round" stroke-width="2.759" d="M27.5,79.7 L27.8,79.7" class="stroke-primary"/><g id="Group" fill-rule="nonzero" class="fill-primary" transform="translate(55.000000, 88.000000)"><circle id="Oval" cx="2.474" cy="2.186" r="1.3" transform="translate(2.474470, 2.185970) rotate(-45.000000) translate(-2.474470, -2.185970)"/><circle id="Oval" cx="2.413" cy="8.011" r="1.3" transform="translate(2.412550, 8.011250) rotate(-45.000000) translate(-2.412550, -8.011250)"/><circle id="Oval" cx="2.422" cy="13.908" r="1.3" transform="translate(2.421840, 13.907540) rotate(-45.000000) translate(-2.421840, -13.907540)"/><circle id="Oval" cx="8.363" cy="5.38" r="1.3" transform="translate(8.362680, 5.380000) rotate(-45.000000) translate(-8.362680, -5.380000)"/><circle id="Oval" cx="8.371" cy="11.276" r="1.3" transform="translate(8.371470, 11.276290) rotate(-45.000000) translate(-8.371470, -11.276290)"/><circle id="Oval" cx="14.267" cy="2.168" r="1.3" transform="translate(14.266950, 2.167890) rotate(-45.000000) translate(-14.266950, -2.167890)"/><circle id="Oval" cx="14.205" cy="7.993" r="1.3" transform="translate(14.205030, 7.993370) rotate(-45.000000) translate(-14.205030, -7.993370)"/><circle id="Oval" cx="14.214" cy="13.89" r="1.3" transform="translate(14.214320, 13.889660) rotate(-45.000000) translate(-14.214320, -13.889660)"/><circle id="Oval" cx="20.155" cy="5.362" r="1.3" transform="translate(20.155160, 5.362220) rotate(-45.000000) translate(-20.155160, -5.362220)"/><circle id="Oval" cx="20.164" cy="11.258" r="1.3" transform="translate(20.163950, 11.258410) rotate(-45.000000) translate(-20.163950, -11.258410)"/><circle id="Oval" cx="26.059" cy="2.15" r="1.3" transform="translate(26.059430, 2.150010) rotate(-45.000000) translate(-26.059430, -2.150010)"/><circle id="Oval" cx="25.998" cy="7.975" r="1.3" transform="translate(25.997510, 7.975490) rotate(-45.000000) translate(-25.997510, -7.975490)"/><circle id="Oval" cx="26.006" cy="13.872" r="1.3" transform="translate(26.006400, 13.871780) rotate(-45.000000) translate(-26.006400, -13.871780)"/><circle id="Oval" cx="31.948" cy="5.344" r="1.3" transform="translate(31.947640, 5.344340) rotate(-45.000000) translate(-31.947640, -5.344340)"/><circle id="Oval" cx="31.957" cy="11.241" r="1.3" transform="translate(31.956530, 11.240630) rotate(-45.000000) translate(-31.956530, -11.240630)"/><circle id="Oval" cx="37.852" cy="2.132" r="1.3" transform="translate(37.852010, 2.132130) rotate(-45.000000) translate(-37.852010, -2.132130)"/><circle id="Oval" cx="37.79" cy="7.958" r="1.3" transform="translate(37.790090, 7.957710) rotate(-45.000000) translate(-37.790090, -7.957710)"/><circle id="Oval" cx="37.799" cy="13.854" r="1.3" transform="translate(37.798880, 13.853900) rotate(-45.000000) translate(-37.798880, -13.853900)"/><circle id="Oval" cx="43.74" cy="5.326" r="1.3" transform="translate(43.740220, 5.326460) rotate(-45.000000) translate(-43.740220, -5.326460)"/><circle id="Oval" cx="43.749" cy="11.223" r="1.3" transform="translate(43.749010, 11.222750) rotate(-45.000000) translate(-43.749010, -11.222750)"/><circle id="Oval" cx="49.574" cy="2.185" r="1.3" transform="translate(49.573780, 2.184960) rotate(-45.000000) translate(-49.573780, -2.184960)"/><circle id="Oval" cx="49.512" cy="8.01" r="1.3" transform="translate(49.511860, 8.010340) rotate(-45.000000) translate(-49.511860, -8.010340)"/><circle id="Oval" cx="49.521" cy="13.907" r="1.3" transform="translate(49.520650, 13.906530) rotate(-45.000000) translate(-49.520650, -13.906530)"/></g><circle id="Oval" cx="36.1" cy="96.6" r="6.4" fill-rule="nonzero" class="fill-neutral"/><path id="Shape" stroke-linecap="round" stroke-linejoin="round" stroke-width="2.759" d="M39.7,101.9 C38.7,102.6 37.5,103 36.1,103 C32.6,103 29.7,100.1 29.7,96.6 C29.7,93.1 32.6,90.2 36.1,90.2 C39.6,90.2 42.5,93.1 42.5,96.6 C42.5,97 42.5,97.3 42.4,97.7" class="stroke-primary"/></g></g></svg>