<svg xmlns="http://www.w3.org/2000/svg" xmlns:xlink="http://www.w3.org/1999/xlink" width="100" height="151" version="1.1" viewBox="0 0 100 151"><title>Speaker</title><desc>Created with Sketch.</desc><g id="Page-1" fill="none" fill-rule="evenodd" stroke="none" stroke-width="1"><g id="Speaker" transform="translate(1.000000, 1.000000)"><rect id="Rectangle-path" width="17.2" height="7.3" x="9.6" y="140.6" fill-rule="nonzero" stroke-linecap="round" stroke-linejoin="round" stroke-width="3" class="stroke-primary fill-primary-400"/><rect id="Rectangle-path" width="17.2" height="7.3" x="70.3" y="140.6" fill-rule="nonzero" stroke-linecap="round" stroke-linejoin="round" stroke-width="3" class="stroke-primary fill-primary-400"/><path id="Shape" fill-rule="nonzero" d="M85.9,142.4 L11.9,142.4 C5.9,142.4 1,137.5 1,131.5 L1,11.7 C1,5.7 5.9,0.8 11.9,0.8 L85.9,0.8 C91.9,0.8 96.8,5.7 96.8,11.7 L96.8,131.5 C96.8,137.5 91.9,142.4 85.9,142.4 Z" class="fill-neutral"/><path id="Shape" fill="#C1DDFE" fill-rule="nonzero" d="M96.8,17.4 L96.8,131.9 C96.8,137.7 92.1,142.3 86.4,142.3 L15.6,142.3 C9.8,142.3 5.2,137.6 5.2,131.9 L5.2,17.4 C5.2,11.6 9.9,7 15.6,7 L86.4,7 C88.9,7 91.3,7.9 93.1,9.4 C95.3,11.3 96.8,14.2 96.8,17.4 Z"/><path id="Shape" fill-rule="nonzero" d="M93,9.4 L93,122.1 C93,127.9 88.3,132.5 82.6,132.5 L11.8,132.5 C9.3,132.5 6.9,131.6 5.1,130.1 L5.1,17.4 C5.1,11.6 9.8,7 15.5,7 L86.3,7 C88.9,7 91.2,7.9 93,9.4 Z" class="fill-primary-100"/><path id="Shape" fill-rule="nonzero" d="M89.5,89.1 C89.5,112 70.4,130.4 47.3,129.4 C26.7,128.5 9.9,111.7 8.9,91.1 C8.1,74.5 17.4,59.9 31.2,53.1 C35.1,51.2 36.4,46.2 33.8,42.7 C31.2,39.3 29.8,34.9 30.1,30.2 C30.7,20.8 38.3,13.2 47.6,12.6 C58.6,11.9 67.7,20.6 67.7,31.4 C67.7,35.6 66.3,39.4 64,42.6 C61.4,46.1 62.8,51.1 66.7,53 C80.2,59.3 89.5,73.1 89.5,89.1 Z" class="fill-neutral"/><path id="Shape" stroke-linecap="round" stroke-linejoin="round" stroke-width="3" d="M50.3,0.8 L85.8,0.8 C91.8,0.8 96.7,5.7 96.7,11.7 L96.7,131.5 C96.7,137.5 91.8,142.4 85.8,142.4 L11.8,142.4 C5.8,142.4 0.9,137.5 0.9,131.5 L0.9,11.7 C0.9,5.7 5.8,0.8 11.8,0.8 L16.4,0.8" class="stroke-primary"/><path id="Shape" stroke-linecap="round" stroke-linejoin="round" stroke-width="3" d="M24.7,0.8 L37.3,0.8" class="stroke-primary"/><circle id="Oval" cx="50.7" cy="33.1" r="8.8" fill-rule="nonzero" class="fill-primary-200"/><path id="Shape" stroke-linecap="round" stroke-linejoin="round" stroke-width="3" d="M59.4,32.2 C58.9,37.6 54.4,41.8 48.9,41.8 C43.1,41.8 38.3,37.1 38.3,31.2 C38.3,30.6 38.4,29.9 38.5,29.3" class="stroke-primary"/><path id="Shape" stroke-linecap="round" stroke-linejoin="round" stroke-width="3" d="M43,22.5 C44.7,21.4 46.7,20.7 48.9,20.7 C51.7,20.7 54.3,21.8 56.1,23.6" class="stroke-primary"/><path id="Shape" stroke-linecap="round" stroke-linejoin="round" stroke-width="3" d="M89.5,89.1 C89.5,112 70.4,130.4 47.3,129.4 C26.7,128.5 9.9,111.7 8.9,91.1 C8.1,74.5 17.4,59.9 31.2,53.1 C35.1,51.2 36.4,46.2 33.8,42.7 C31.2,39.3 29.8,34.9 30.1,30.2 C30.7,20.8 38.3,13.2 47.6,12.6 C58.6,11.9 67.7,20.6 67.7,31.4 C67.7,35.6 66.3,39.4 64,42.6 C61.4,46.1 62.8,51.1 66.7,53 C80.2,59.3 89.5,73.1 89.5,89.1 Z" class="stroke-primary"/><circle id="Oval" cx="49.2" cy="89.1" r="31.1" fill-rule="nonzero" class="fill-primary-200"/><circle id="Oval" cx="49.3" cy="89.2" r="11.1" fill-rule="nonzero" class="fill-neutral"/><circle id="Oval" cx="51" cy="90.9" r="9.5" fill-rule="nonzero" class="fill-primary-400"/><path id="Shape" stroke-linecap="round" stroke-linejoin="round" stroke-width="3" d="M44.1,79.1 C45.6,78.3 47.4,77.9 49.2,77.9 C55.4,77.9 60.4,82.9 60.4,89.1 C60.4,95.3 55.4,100.3 49.2,100.3 C43,100.3 38,95.3 38,89.1 C38,87.8 38.2,86.6 38.6,85.5" class="stroke-primary"/><path id="Shape" stroke-linecap="round" stroke-linejoin="round" stroke-width="3" d="M30.6,64.2 C31.5,63.5 32.4,62.9 33.3,62.4" class="stroke-primary"/><path id="Shape" stroke-linecap="round" stroke-linejoin="round" stroke-width="3" d="M59.9,118.3 C56.6,119.5 53,120.2 49.2,120.2 C32,120.2 18.1,106.3 18.1,89.1 C18.1,82.8 20,76.9 23.2,72.1" class="stroke-primary"/><path id="Shape" stroke-linecap="round" stroke-linejoin="round" stroke-width="3" d="M43.9,58.5 C45.6,58.2 47.4,58 49.2,58 C66.4,58 80.3,71.9 80.3,89.1 C80.3,96.6 77.6,103.5 73.2,108.9" class="stroke-primary"/></g></g></svg>