<svg xmlns="http://www.w3.org/2000/svg" xmlns:xlink="http://www.w3.org/1999/xlink" width="110" height="148" version="1.1" viewBox="0 0 110 148"><title>Tablet</title><desc>Created with Sketch.</desc><g id="Page-1" fill="none" fill-rule="evenodd" stroke="none" stroke-width="1"><g id="Tablet" transform="translate(2.000000, 1.000000)"><g id="Group"><path id="Shape" fill-rule="nonzero" d="M95.6,144.8 L10.6,144.8 C4.9,144.8 0.2,140.2 0.2,134.4 L0.2,11.1 C0.2,5.4 4.8,0.7 10.6,0.7 L95.6,0.7 C101.3,0.7 106,5.3 106,11.1 L106,134.4 C105.9,140.1 101.3,144.8 95.6,144.8 Z" class="fill-neutral"/><path id="Shape" fill-rule="nonzero" d="M105.9,11.1 L105.9,134.4 C105.9,140.1 101.3,144.8 95.5,144.8 L10.5,144.8 C4.8,144.8 0.1,140.2 0.1,134.4 L0.1,11.1 C0.1,5.4 4.7,0.7 10.5,0.7 L95.5,0.7 C101.3,0.8 105.9,5.4 105.9,11.1 Z" class="fill-primary-200"/><rect id="Rectangle-path" width="105.7" height="116" x=".2" y="12.3" fill-rule="nonzero" class="fill-neutral"/><path id="Shape" stroke-linecap="round" stroke-linejoin="round" stroke-width="3" d="M0.2,41.1 L0.2,11.1 C0.2,5.4 4.8,0.7 10.6,0.7 L95.6,0.7 C101.3,0.7 106,5.3 106,11.1 L106,134.4 C106,140.1 101.4,144.8 95.6,144.8 L10.6,144.8 C4.9,144.8 0.2,140.2 0.2,134.4 L0.2,63" class="stroke-primary"/><path id="Shape" stroke-linecap="round" stroke-linejoin="round" stroke-width="3" d="M0.2,46.6 L0.2,46.2" class="stroke-primary"/><circle id="Oval" cx="53.7" cy="136.3" r="3.5" stroke-linecap="round" stroke-linejoin="round" stroke-width="3" class="stroke-primary"/><path id="Shape" stroke-linecap="round" stroke-linejoin="round" stroke-width="3" d="M97.5,12.8 L105.2,12.8" class="stroke-primary"/><path id="Shape" stroke-linecap="round" stroke-linejoin="round" stroke-width="3" d="M7.5,12.8 L91.4,12.8" class="stroke-primary"/><path id="Shape" stroke-linecap="round" stroke-linejoin="round" stroke-width="3" d="M87.7,127.8 L0.9,127.8" class="stroke-primary"/><path id="Shape" stroke-linecap="round" stroke-linejoin="round" stroke-width="3" d="M105.2,127.8 L94.1,127.8" class="stroke-primary"/><path id="Shape" stroke-linecap="round" stroke-linejoin="round" stroke-width="3" d="M50.2,6.8 L59.2,6.8" class="stroke-primary"/><path id="Shape" stroke-linecap="round" stroke-linejoin="round" stroke-width="3" d="M44.3,6.8 L44.9,6.8" class="stroke-primary"/></g></g></g></svg>