<svg xmlns="http://www.w3.org/2000/svg" xmlns:xlink="http://www.w3.org/1999/xlink" width="152" height="153" version="1.1" viewBox="0 0 152 153"><title>USB_Stick</title><desc>Created with Sketch.</desc><g id="Page-1" fill="none" fill-rule="evenodd" stroke="none" stroke-width="1"><g id="USB_Stick" transform="translate(1.000000, 2.000000)"><g id="Group" stroke-linecap="round" stroke-linejoin="round" stroke-width="3" class="stroke-primary" transform="translate(87.000000, 0.000000)"><polyline id="Shape" points="3.2 29.5 .1 32.7 29.8 62.4 62.1 30 32.4 .3 8.4 24.3"/><path id="Shape" d="M30.3,18.1 L16.7,31.6"/><path id="Shape" d="M43.3,31.1 L29.8,44.6"/></g><path id="Shape" fill-rule="nonzero" d="M76.3,27.7 L76.5,27.5 C79.8,24.2 85,24.2 88.3,27.5 L122,61.2 C125.3,64.5 125.3,69.7 122,73 L48.9,146.1 C45.6,149.4 40.4,149.4 37.1,146.1 L3.4,112.4 C0.1,109.1 0.1,103.9 3.4,100.6 L42.8,61.2" class="fill-neutral"/><path id="Shape" fill-rule="nonzero" d="M64.5,39.4 L69.7,34.2" class="fill-neutral"/><path id="Shape" fill="#BCDAFE" fill-rule="nonzero" d="M118.8,76.1 L48.5,146.4 C45.4,149.5 40.4,149.5 37.4,146.4 L6.4,115.4 C3.3,112.3 3.3,107.3 6.4,104.3 L7.5,103.2 L76.7,34 C79.8,30.9 84.8,30.9 87.8,34 L118.8,65 C118.8,65 118.8,65 118.8,65 C121.8,68.1 121.8,73.1 118.8,76.1 Z"/><path id="Shape" fill-rule="nonzero" d="M118.8,65 L56.8,127 C49.7,134.1 38.2,134.1 31.1,127 L7.3,103.2 C7.3,103.2 7.3,103.2 7.3,103.2 L76.5,34 C79.6,30.9 84.6,30.9 87.6,34 L118.8,65 C118.8,65 118.8,65 118.8,65 Z" class="fill-primary-100"/><path id="Shape" stroke-linecap="round" stroke-linejoin="round" stroke-width="3" d="M71.3,32.7 L76.5,27.5 C79.8,24.2 85,24.2 88.3,27.5 L122,61.2 C125.3,64.5 125.3,69.7 122,73 L48.9,146.1 C45.6,149.4 40.4,149.4 37.1,146.1 L3.4,112.4 C0.1,109.1 0.1,103.9 3.4,100.6 L54.4,49.6" class="stroke-primary"/><path id="Shape" stroke-linecap="round" stroke-linejoin="round" stroke-width="3" d="M63.5,40.4 L66,38" class="stroke-primary"/><circle id="Oval" cx="30.385" cy="119.036" r="7.2" fill-rule="nonzero" stroke-linecap="round" stroke-linejoin="round" stroke-width="3" class="stroke-primaryfill-neutral" transform="translate(30.385450, 119.036370) rotate(-45.000000) translate(-30.385450, -119.036370)"/><path id="Shape" stroke-linecap="round" stroke-linejoin="round" stroke-width="3" d="M30.5,126.3 C29.8,124.7 28.9,123.2 27.6,121.9 C22,116.3 12.3,116.8 6,123.1 C-0.3,129.4 -0.8,139 4.8,144.7 C10.4,150.3 20.1,149.8 26.4,143.5 C27.7,142.2 28.7,140.9 29.5,139.4" class="stroke-primary"/><polyline id="Shape" fill-rule="nonzero" stroke-linecap="round" stroke-linejoin="round" stroke-width="3" points="57.8 116.4 52.5 121.7 28.8 98 83.6 43.2 107.2 66.9 66.5 107.6" class="stroke-primary fill-neutral"/></g></g></svg>