<svg xmlns="http://www.w3.org/2000/svg" xmlns:svg="http://www.w3.org/2000/svg" xmlns:xlink="http://www.w3.org/1999/xlink" id="Layer_1" width="164.3" height="127.6" x="0" y="0" enable-background="new 0 0 195.4 160.9" version="1.1" viewBox="0 0 164.3 127.6" xml:space="preserve"><metadata id="metadata153"/><switch id="switch146" transform="translate(-13.9,-12.2)"><g id="g144"><g id="g142"><g id="g102"><path id="path100" d="m 157.4,54.9 h -9.5 V 50 c 0,-3.9 -3.2,-7.1 -7.1,-7.1 -3.9,0 -7.1,3.2 -7.1,7.1 v 4.9 h -9.5 V 50 c 0,-9.2 7.5,-16.6 16.6,-16.6 9.2,0 16.6,7.5 16.6,16.6 z" style="fill:#ffa400"/></g><path id="path104" d="m 161.3,54.9 h -41 c -1.8,0 -3.2,1.4 -3.2,3.2 v 30.3 c 0,1.8 1.4,3.2 3.2,3.2 h 41 c 1.8,0 3.2,-1.4 3.2,-3.2 V 58.1 c -0.1,-1.8 -1.5,-3.2 -3.2,-3.2 z m -18.5,19.9 v 4.1 c 0,1.1 -0.9,2.1 -2.1,2.1 -1.1,0 -2.1,-0.9 -2.1,-2.1 v -4.1 c -1.3,-0.7 -2.1,-2.1 -2.1,-3.7 0,-2.3 1.9,-4.2 4.2,-4.2 2.3,0 4.2,1.9 4.2,4.2 0.1,1.6 -0.8,3 -2.1,3.7 z" style="fill:#003a70"/><path id="path106" d="m 116.1,50.4 h -9.9 c -1.6,0 -2.9,-1.3 -2.9,-2.9 0,-1.6 1.3,-2.9 2.9,-2.9 h 9.9 c 1.6,0 2.9,1.3 2.9,2.9 0,1.6 -1.3,2.9 -2.9,2.9 z" style="fill:#ffa400"/><path id="path108" d="m 123.1,34.8 c -0.6,0 -1.3,-0.2 -1.8,-0.7 l -7.8,-6.4 c -1.2,-1 -1.4,-2.8 -0.4,-4.1 1,-1.2 2.8,-1.4 4.1,-0.4 l 7.8,6.4 c 1.2,1 1.4,2.8 0.4,4.1 -0.7,0.7 -1.5,1.1 -2.3,1.1 z" style="fill:#ffa400"/><path id="path110" d="m 140.8,28 c -1.6,0 -2.9,-1.3 -2.9,-2.9 v -10 c 0,-1.6 1.3,-2.9 2.9,-2.9 1.6,0 2.9,1.3 2.9,2.9 v 10 c 0,1.6 -1.3,2.9 -2.9,2.9 z" style="fill:#ffa400"/><g id="g114"><path id="path112" d="m 158.4,34.8 c -0.8,0 -1.7,-0.4 -2.2,-1.1 -1,-1.2 -0.8,-3.1 0.4,-4.1 l 7.8,-6.4 c 1.2,-1 3.1,-0.8 4.1,0.4 1,1.2 0.8,3.1 -0.4,4.1 l -7.8,6.4 c -0.6,0.5 -1.2,0.7 -1.9,0.7 z" style="fill:#ffa400"/></g><path id="path116" d="m 175.3,50.4 h -10 c -1.6,0 -2.9,-1.3 -2.9,-2.9 0,-1.6 1.3,-2.9 2.9,-2.9 h 10 c 1.6,0 2.9,1.3 2.9,2.9 0,1.6 -1.3,2.9 -2.9,2.9 z" style="fill:#ffa400"/><path id="path118" d="M 13.9,91.2 V 58.9 h 7.8 v 25.5 h 12.5 v 6.8 z" style="fill:#003a70"/><path id="path120" d="m 60,80.1 c 0,0.3 0,0.6 0,0.9 0,0.3 0,0.6 0,0.9 H 43.5 c 0.1,0.6 0.3,1.2 0.6,1.7 0.3,0.5 0.7,1 1.2,1.3 0.5,0.4 1.1,0.7 1.7,0.9 0.6,0.2 1.3,0.3 1.9,0.3 1.2,0 2.2,-0.2 3,-0.7 0.8,-0.4 1.5,-1 2,-1.7 l 5.2,3.3 c -1.1,1.6 -2.5,2.7 -4.2,3.6 -1.7,0.8 -3.8,1.3 -6.1,1.3 -1.7,0 -3.3,-0.3 -4.8,-0.8 -1.5,-0.5 -2.8,-1.3 -4,-2.3 -1.1,-1 -2,-2.3 -2.7,-3.8 -0.7,-1.5 -1,-3.2 -1,-5.1 0,-1.9 0.3,-3.5 1,-5 0.6,-1.5 1.5,-2.8 2.6,-3.8 1.1,-1 2.4,-1.9 3.9,-2.4 1.5,-0.6 3.1,-0.9 4.8,-0.9 1.7,0 3.2,0.3 4.6,0.8 1.4,0.6 2.6,1.4 3.6,2.4 1,1.1 1.8,2.4 2.3,3.9 0.6,1.6 0.9,3.3 0.9,5.2 z m -6.9,-2.8 c 0,-1.2 -0.4,-2.2 -1.1,-3.1 -0.7,-0.9 -1.9,-1.3 -3.4,-1.3 -0.7,0 -1.4,0.1 -2,0.3 -0.6,0.2 -1.1,0.5 -1.6,0.9 -0.5,0.4 -0.8,0.9 -1.1,1.4 -0.3,0.5 -0.4,1.1 -0.5,1.7 h 9.7 z" style="fill:#003a70"/><path id="path122" d="m 72,74.1 v 8.7 c 0,1.1 0.2,1.9 0.6,2.4 0.4,0.5 1.1,0.8 2.2,0.8 0.4,0 0.8,0 1.2,-0.1 0.4,-0.1 0.8,-0.2 1,-0.3 l 0.1,5.5 c -0.5,0.2 -1.2,0.3 -2,0.5 -0.8,0.1 -1.6,0.2 -2.4,0.2 -1.5,0 -2.8,-0.2 -3.8,-0.6 C 67.9,90.8 67,90.3 66.4,89.6 65.8,88.9 65.3,88 65.1,87 64.9,86 64.7,84.9 64.7,83.7 V 74.1 H 61 v -5.6 h 3.6 v -6 H 72 v 6 h 5.3 v 5.6 z" style="fill:#003a70"/><path id="path124" d="m 101.5,75.2 c -0.6,-0.6 -1.3,-1.1 -2.1,-1.5 -0.8,-0.4 -1.7,-0.6 -2.6,-0.6 -0.7,0 -1.3,0.1 -1.9,0.4 -0.6,0.3 -0.9,0.7 -0.9,1.4 0,0.6 0.3,1.1 1,1.4 0.7,0.3 1.7,0.6 3.2,0.9 0.9,0.2 1.7,0.4 2.6,0.8 0.9,0.4 1.6,0.8 2.3,1.3 0.7,0.5 1.3,1.2 1.7,2 0.4,0.8 0.6,1.7 0.6,2.8 0,1.4 -0.3,2.6 -0.9,3.6 -0.6,1 -1.3,1.8 -2.3,2.4 -0.9,0.6 -2,1 -3.1,1.3 -1.2,0.3 -2.3,0.4 -3.5,0.4 -1.9,0 -3.7,-0.3 -5.4,-0.9 -1.8,-0.6 -3.3,-1.5 -4.4,-2.6 L 90,83.9 c 0.7,0.7 1.5,1.3 2.5,1.8 1,0.5 2,0.7 3.1,0.7 0.6,0 1.2,-0.1 1.8,-0.4 0.6,-0.3 0.9,-0.8 0.9,-1.5 0,-0.7 -0.4,-1.2 -1.1,-1.6 -0.7,-0.3 -1.9,-0.7 -3.4,-1 -0.8,-0.2 -1.6,-0.4 -2.4,-0.7 -0.8,-0.3 -1.5,-0.7 -2.1,-1.2 -0.6,-0.5 -1.1,-1.2 -1.5,-1.9 -0.4,-0.8 -0.6,-1.7 -0.6,-2.7 0,-1.4 0.3,-2.5 0.9,-3.5 0.6,-1 1.3,-1.7 2.2,-2.3 0.9,-0.6 1.9,-1.1 3,-1.3 1.1,-0.3 2.2,-0.4 3.3,-0.4 1.7,0 3.4,0.3 5,0.8 1.6,0.5 3,1.3 4.1,2.4 z" style="fill:#003a70"/><path id="path126" d="M 13.9,128.6 V 96.3 h 21.7 v 6.6 H 21.4 v 6.1 h 13.4 v 6.2 H 21.4 v 6.7 h 15 v 6.7 z" style="fill:#003a70"/><path id="path128" d="m 56.1,128.6 v -12.4 c 0,-0.6 -0.1,-1.2 -0.2,-1.8 -0.1,-0.6 -0.3,-1.1 -0.5,-1.5 -0.2,-0.4 -0.6,-0.8 -1,-1 -0.4,-0.3 -1,-0.4 -1.7,-0.4 -0.7,0 -1.3,0.1 -1.8,0.4 -0.5,0.3 -0.9,0.6 -1.3,1.1 -0.3,0.5 -0.6,1 -0.8,1.6 -0.2,0.6 -0.3,1.2 -0.3,1.8 v 12.3 H 41 V 106 h 7.2 v 3.1 h 0.1 c 0.3,-0.5 0.6,-1 1.1,-1.4 0.4,-0.5 1,-0.9 1.5,-1.2 0.6,-0.3 1.2,-0.6 1.9,-0.8 0.7,-0.2 1.4,-0.3 2.2,-0.3 1.5,0 2.8,0.3 3.9,0.8 1.1,0.5 1.9,1.3 2.6,2.1 0.7,0.9 1.1,1.9 1.4,3 0.3,1.1 0.4,2.2 0.4,3.4 v 14 h -7.2 z" style="fill:#003a70"/><path id="path130" d="m 82.9,113.2 c -0.4,-0.5 -1,-1 -1.7,-1.3 -0.7,-0.3 -1.5,-0.5 -2.2,-0.5 -0.8,0 -1.5,0.2 -2.1,0.5 -0.6,0.3 -1.2,0.7 -1.6,1.3 -0.4,0.6 -0.8,1.1 -1.1,1.8 -0.3,0.7 -0.4,1.4 -0.4,2.2 0,0.8 0.1,1.5 0.4,2.2 0.2,0.7 0.6,1.3 1.1,1.8 0.5,0.5 1,1 1.7,1.3 0.7,0.3 1.4,0.5 2.2,0.5 0.8,0 1.5,-0.1 2.3,-0.4 0.7,-0.3 1.3,-0.7 1.8,-1.3 l 4.1,5.1 c -0.9,0.9 -2.2,1.6 -3.6,2.1 -1.5,0.5 -3.1,0.8 -4.7,0.8 -1.8,0 -3.5,-0.3 -5,-0.8 -1.6,-0.5 -2.9,-1.3 -4.1,-2.4 -1.1,-1 -2,-2.3 -2.7,-3.8 -0.7,-1.5 -1,-3.2 -1,-5.1 0,-1.9 0.3,-3.5 1,-5 0.7,-1.5 1.6,-2.8 2.7,-3.8 1.1,-1 2.5,-1.9 4.1,-2.4 1.6,-0.6 3.2,-0.8 5,-0.8 0.8,0 1.6,0.1 2.4,0.2 0.8,0.2 1.6,0.4 2.3,0.6 0.7,0.3 1.4,0.6 2.1,1 0.6,0.4 1.2,0.8 1.6,1.3 z" style="fill:#003a70"/><path id="path132" d="m 104.7,112.1 c -0.3,-0.1 -0.7,-0.2 -1,-0.2 -0.3,0 -0.6,0 -0.9,0 -1,0 -1.8,0.2 -2.5,0.5 -0.7,0.4 -1.2,0.8 -1.6,1.3 -0.4,0.5 -0.7,1.1 -0.9,1.7 -0.2,0.6 -0.3,1.1 -0.3,1.6 v 11.6 H 90 v -22.7 h 7.2 v 3.3 h 0.1 c 0.6,-1.2 1.4,-2.1 2.5,-2.8 1.1,-0.7 2.3,-1.1 3.7,-1.1 0.3,0 0.6,0 0.9,0 0.3,0 0.5,0.1 0.7,0.1 z" style="fill:#003a70"/><path id="path134" d="m 122.3,132 c -0.5,1.2 -1,2.2 -1.5,3.2 -0.6,0.9 -1.2,1.7 -2,2.4 -0.8,0.7 -1.7,1.1 -2.7,1.5 -1,0.3 -2.3,0.5 -3.7,0.5 -0.7,0 -1.4,0 -2.2,-0.1 -0.7,-0.1 -1.4,-0.2 -1.9,-0.4 l 0.8,-6.3 c 0.4,0.1 0.8,0.2 1.2,0.3 0.4,0.1 0.8,0.1 1.2,0.1 1.2,0 2,-0.3 2.5,-0.8 0.5,-0.5 1,-1.3 1.3,-2.3 l 0.7,-1.9 -9.5,-22.3 h 8.3 l 5.1,14.6 h 0.1 l 4.5,-14.6 h 7.9 z" style="fill:#003a70"/><path id="path136" d="m 159.7,117.2 c 0,1.6 -0.2,3.1 -0.7,4.6 -0.5,1.5 -1.2,2.7 -2.1,3.9 -0.9,1.1 -2.1,2 -3.4,2.7 -1.3,0.7 -2.9,1 -4.6,1 -1.4,0 -2.7,-0.3 -4,-0.8 -1.2,-0.6 -2.2,-1.3 -2.9,-2.3 h -0.1 v 13.5 h -7.5 v -33.6 h 7.1 v 2.8 h 0.1 c 0.7,-0.9 1.7,-1.7 2.9,-2.4 1.2,-0.7 2.7,-1 4.4,-1 1.6,0 3.1,0.3 4.5,1 1.3,0.6 2.5,1.5 3.4,2.6 0.9,1.1 1.6,2.4 2.1,3.8 0.5,1.1 0.8,2.6 0.8,4.2 z m -7.3,0 c 0,-0.7 -0.1,-1.4 -0.3,-2.1 -0.2,-0.7 -0.6,-1.3 -1,-1.8 -0.4,-0.5 -1,-1 -1.7,-1.3 -0.7,-0.3 -1.4,-0.5 -2.3,-0.5 -0.9,0 -1.6,0.2 -2.3,0.5 -0.7,0.3 -1.2,0.8 -1.7,1.3 -0.5,0.5 -0.8,1.2 -1.1,1.9 -0.3,0.7 -0.4,1.4 -0.4,2.1 0,0.7 0.1,1.4 0.4,2.1 0.3,0.7 0.6,1.3 1.1,1.9 0.5,0.5 1,1 1.7,1.3 0.7,0.3 1.4,0.5 2.3,0.5 0.9,0 1.7,-0.2 2.3,-0.5 0.7,-0.3 1.2,-0.8 1.7,-1.3 0.4,-0.5 0.8,-1.2 1,-1.9 0.2,-0.8 0.3,-1.5 0.3,-2.2 z" style="fill:#003a70"/><path id="path138" d="m 171.6,111.5 v 8.7 c 0,1.1 0.2,1.9 0.6,2.4 0.4,0.5 1.1,0.8 2.2,0.8 0.4,0 0.8,0 1.2,-0.1 0.4,-0.1 0.8,-0.2 1,-0.3 l 0.1,5.5 c -0.5,0.2 -1.2,0.3 -2,0.5 -0.8,0.1 -1.6,0.2 -2.4,0.2 -1.5,0 -2.8,-0.2 -3.8,-0.6 -1,-0.4 -1.9,-0.9 -2.5,-1.6 -0.6,-0.7 -1.1,-1.6 -1.3,-2.6 -0.2,-1 -0.4,-2.1 -0.4,-3.3 v -9.6 h -3.6 v -5.6 h 3.6 v -6 h 7.3 v 6 h 5.3 v 5.6 z" style="fill:#003a70"/><path id="path140" d="m 84.2,58.3 c -2.2,0 -4,1.6 -4,3.7 0,2.2 1.5,3.6 3.7,3.6 0.2,0 0.4,0 0.5,-0.1 -0.4,1.6 -1.9,2.8 -3.4,3 H 80.7 V 72 h 0.4 c 1.8,-0.2 3.5,-1 4.8,-2.2 1.7,-1.6 2.6,-4 2.6,-6.8 0,-2.7 -1.8,-4.7 -4.3,-4.7 z" style="fill:#003a70"/></g></g></switch></svg>