<svg xmlns="http://www.w3.org/2000/svg" xmlns:xlink="http://www.w3.org/1999/xlink" width="285" height="543" version="1.1" viewBox="0 0 285 543"><defs><rect id="path-1" width="193.093" height="86.397" x="11.953" y="413.603"/><filter id="filter-2" width="186%" height="292.1%" x="-43%" y="-63.7%" filterUnits="objectBoundingBox"><feOffset dx="0" dy="28" in="SourceAlpha" result="shadowOffsetOuter1"/><feGaussianBlur in="shadowOffsetOuter1" result="shadowBlurOuter1" stdDeviation="23"/><feColorMatrix in="shadowBlurOuter1" result="shadowMatrixOuter1" type="matrix" values="0 0 0 0 0 0 0 0 0 0 0 0 0 0 0 0 0 0 0.177139946 0"/><feOffset dx="0" dy="13" in="SourceAlpha" result="shadowOffsetOuter2"/><feGaussianBlur in="shadowOffsetOuter2" result="shadowBlurOuter2" stdDeviation="14"/><feColorMatrix in="shadowBlurOuter2" result="shadowMatrixOuter2" type="matrix" values="0 0 0 0 0 0 0 0 0 0 0 0 0 0 0 0 0 0 0.0439594656 0"/><feMerge><feMergeNode in="shadowMatrixOuter1"/><feMergeNode in="shadowMatrixOuter2"/></feMerge></filter><path id="path-3" d="M215.161017,144.301471 L216.080882,144.301471 C216.588497,144.301471 217,144.712974 217,145.220588 L217,172.794118 C217,173.301732 216.588497,173.713235 216.080882,173.713235 L215.161017,173.713235 L215.161017,433.823529 C215.161017,450.067199 201.992921,463.235294 185.749252,463.235294 L31.2507478,463.235294 C15.0070786,463.235294 1.83898305,450.067199 1.83898305,433.823529 L1.83898305,199.448529 L0.919117647,199.448529 C0.411502987,199.448529 1.73187169e-16,199.037026 1.11022302e-16,198.529412 L-1.11022302e-16,170.955882 C-1.73187169e-16,170.448268 0.411502987,170.036765 0.919117647,170.036765 L1.83898305,170.036765 L1.83898305,143.382353 L0.919117647,143.382353 C0.411502987,143.382353 4.00543245e-15,142.97085 1.11022302e-16,142.463235 L-1.11022302e-16,79.9632353 C-1.73187169e-16,79.4556206 0.411502987,79.0441176 0.919117647,79.0441176 L1.83898305,79.0441176 L1.83898305,29.4117647 C1.83898305,13.1680956 15.0070786,-1.12269411e-14 31.2507478,-1.42108547e-14 L185.749252,0 C201.992921,1.14433628e-14 215.161017,13.1680956 215.161017,29.4117647 L215.161017,144.301471 Z"/><filter id="filter-4" width="147%" height="122%" x="-23.5%" y="-7.1%" filterUnits="objectBoundingBox"><feOffset dx="0" dy="18" in="SourceAlpha" result="shadowOffsetOuter1"/><feGaussianBlur in="shadowOffsetOuter1" result="shadowBlurOuter1" stdDeviation="14"/><feColorMatrix in="shadowBlurOuter1" type="matrix" values="0 0 0 0 0 0 0 0 0 0 0 0 0 0 0 0 0 0 0.03 0"/></filter><pattern id="pattern-5" width="118.491%" height="100%" x="-18.491%" patternUnits="objectBoundingBox"><use transform="scale(0.254938272,0.254938272)" xlink:href="#image-6"/></pattern><image id="image-6" width="1080" height="1620" xlink:href="assets/img/theme/light/img-1-201x413.png"/></defs><g id="Ultimate-Designer-Mockup-Pack" fill="none" fill-rule="evenodd" stroke="none" stroke-width="1"><g id="Two-Galaxy-S8" transform="translate(-120.000000, -57.000000)"><g id="Galaxy-S8-Left" transform="translate(154.000000, 67.000000)"><g id="Shadow" fill="#000" fill-opacity="1" opacity=".206"><use filter="url(#filter-2)" xlink:href="#path-1"/></g><g id="Body"><use fill="#000" fill-opacity="1" filter="url(#filter-4)" xlink:href="#path-3"/><use fill="#FFF" fill-rule="evenodd" xlink:href="#path-3"/></g><rect id="Screen" width="201" height="413" x="8" y="26" fill="url(#pattern-5)" rx="16.544"/></g></g></g></svg>